M48
;Layer_Color=9474304
;FILE_FORMAT=4:3
METRIC,LZ
;TYPE=PLATED
T2F00S00C0.200
T3F00S00C0.250
T4F00S00C0.500
T6F00S00C0.900
T7F00S00C0.920
T8F00S00C1.000
T9F00S00C2.330
T10F00S00C3.250
T11F00S00C3.500
%
T02
X0041752Y0018476
X00459Y0019925
X00478Y002015
X0046425Y0025375
Y002605
Y00267
X00438Y0025675
X004445Y0024475
X0040025Y0028825
X003945Y003095
X004185Y00351
X0045575Y003595
X0046072Y0036371
X0045675Y0033025
X00491Y00332
X0054725Y0033975
X0055253Y0034402
X0056825Y00351
X0064Y0034
X0064375Y003355
X0064925Y00339
X00654Y0034375
X0065375Y0035825
X006675Y003625
X00673
X00694Y00362
Y00367
Y003765
X0069425Y003865
X0069425Y003915
X0069925
X0070975Y0039225
X0072
X00725
X0073525
X0074025
X0075
X0075975
X0076475
Y003865
X007655Y00377
X007555Y003765
X0075525Y0038225
X0074975
X0074475
X0073975Y003815
X0073474Y0038147
X0072975Y0038175
X0072475Y00381
X0071975Y0038125
X0071475
X0070977Y0038168
X0070436Y0038274
X00704Y0037775
Y0037275
X007035Y0036775
Y0036275
Y0035775
X00705Y0035075
X0070442Y0034578
X007045Y0034079
X00704Y0033575
Y0033075
X00709Y003305
X00714Y0033075
X00719
X00724
X00729Y00331
X00734
X00739
X0074475Y0033225
X0075075Y00331
X0075575Y0033125
X007555Y0033625
X00755Y0034125
X0075525Y0034625
X0075575Y0035125
X0075525Y003565
X0075475Y003615
X007555Y003665
X0075425Y003715
X0074575Y0037225
X0074022Y0037269
X00735Y00372
X0072975Y0037225
X0072475Y0037125
X007195Y003715
X0071375Y003715
X0071475Y003665
X007145Y0036149
Y0035625
Y0035125
Y0034625
X007145Y00341
X007195Y00341
X007245Y0034225
X007295
X007345Y00341
X0073975
X00745
Y003465
Y003515
X0074454Y0035677
X00745Y0036175
X007445Y0036725
X007655Y0036625
X007655Y0036125
X007655Y00352
Y00347
X007655Y0033675
X007655Y00327
X0076475Y0032075
X0075804Y0032002
X0075054Y0032051
X0073925Y0032075
X0073425
X0072395Y003205
X0071895Y003207
X0070975Y003205
X00699Y0032075
X00694Y003215
Y003265
Y0033675
Y003455
Y003515
X0072975Y003565
X0073425Y00412
X0078375Y004075
X0078625Y0038225
X0079325Y0037975
X0079775Y0037725
X00798Y0038225
X008025Y0037975
X0080175Y0037025
X0079675
X008027Y0036325
X0080375Y0035325
X0079475Y0034875
X0079825Y00345
X0079925Y003355
Y00328
X0080625Y003285
Y003335
X00807Y0034175
X00819Y00343
Y00348
X0081075Y0036025
X008125Y003735
Y0037875
X0084725Y00377
X0085225
X008595Y00376
Y0036975
X008675Y00369
Y00376
X008755
Y00369
Y00361
X008835
Y00369
Y00376
Y00321
Y00313
X0088325Y0030275
X00876Y0030525
X0087625Y003
X0086875Y003045
X0086075
X008575Y0029775
X00862Y00295
X0085225Y00313
X0084825Y0031
X008675Y0032025
X008755Y00321
X00809Y0032425
X0079225Y00326
X0078825Y003295
X00785Y0033625
X007865Y0036275
X0079125Y00361
X0078075Y0030225
X0076475
X0076475Y00296
X007375Y0027425
X007275Y002505
X007165Y00257
X00707Y0024225
X0070725Y0023475
X0070475Y002765
X007075Y002825
X0071225Y002875
X0067675Y0030325
X006705Y00299
X006685Y0031225
X00672Y0032
X0066875Y0033225
X0066075Y0032475
X00654Y0032075
X0065025Y0031425
X006495Y0030175
X006435Y003685
X00633Y004205
X0062425Y0041375
X006245Y0042875
X0067675Y0041
X0075025Y0025175
X00633Y00144
X00888Y0029525
X008995Y0030575
X008995Y00313
X0090725Y00313
Y00321
Y00329
X0089975Y0033025
X0089145Y0032095
X0089845Y0035195
X0090425Y00352
X0091125
X009075Y00361
Y00369
X008995
X008915
X0089145Y0037595
X008915Y00361
X0089945Y0036095
X0091945Y0037795
X0092745Y0037795
X0093545
X0094345
X0095125Y00378
X0095825
X0096525
X0097275
X009715Y0035375
X009635Y0035375
X009475Y0035375
X0093275Y0033025
X0093545Y0030395
X0092745Y0030395
X0094745Y0031295
X009825Y0032425
X010585Y0045625
X01065
X010975
Y0046925
X01091
X010845
X01104
X011235Y0044975
X0115925Y0028325
X011595Y00276
X01117Y0048225
Y0048875
X01104Y0048875
X010975
X01091
X010845Y0048875
X010845Y0048225
X010845Y0047575
X01091
X01091Y0048225
X010975Y0048225
X01104
Y0047575
X010975
X010975Y0050175
X01091
X010845
X01078
X011235Y0050825
X009645Y0047675
X004185Y0057475
X0047825Y0066825
X0030975Y008775
X002985Y00914
X0027294Y0089994
T03
X00906Y000285
X0093175Y00056
X0096075Y0002825
X0097275Y0003325
X0098775Y0004425
X0100745Y0002933
X0103475Y00044
X0108725Y000505
X0111625Y000535
X0113475Y000532
X011325Y000385
X01117Y0002925
X011745Y0003775
X0117825Y0005325
X0115975Y000532
X0120244Y00056
X0088125Y0004275
X0082352Y0004473
X00827Y000295
X0079675Y0004525
X00782Y00032
X007705Y000275
X0070525Y00057
X0069775Y0006075
X0069425Y0004625
X0068725Y0006825
X00671Y000725
X006675Y000275
X0060525Y0004275
X00607Y00057
X0059625
X005845
X0057382Y0005089
X0056525Y00043
X00549Y00057
X0053225Y0004275
X00523Y000445
X005165Y00053
X005035Y0005375
X0050375Y0006075
X0049875Y000685
X0049725Y000435
X004915Y00027
X0058675Y0002725
X0062475Y0006475
X00465Y0005425
X004335Y0005475
X004235Y0006
X0042375Y0004775
X0040575Y0003175
X003405Y000555
X00318Y0005425
X0029375Y0004225
X002875Y0003325
X0017125Y0002725
X0014575Y00055
X0009225Y0001875
X000875Y0011367
X0008825Y0012825
Y0015825
Y0017125
X000455Y00167
X0005075Y0015575
Y0013075
X0005233Y0011308
X0005225Y0018325
X00033Y0017325
X0007597Y0020828
X0007575Y0021825
X000915Y0026825
X0003575Y0030675
X000435Y004035
X0010675Y004255
X001315Y00459
X0018722Y0042296
X0022025Y0042575
X0020575Y0036125
X0019775Y0034775
X001825Y0035575
X00137Y00357
X0011375Y0034025
X0012225Y0030825
X000985Y002775
X00119Y0024725
X0012725Y002405
X0013275Y0025725
X0014325Y00257
X0014988
X001565
X0015475Y0024725
X0014375
X0014925Y0023725
X0015475Y0022725
Y0021875
X001445Y002185
X0014375Y0022725
X0013475Y0022125
X001255Y0021675
X00155Y00205
X001742Y0020614
X00176Y001955
Y001815
X0017445Y0017089
X001677Y0013918
X0015625Y00139
X0014175Y0013725
X0013076Y001405
X0011125Y001415
X00135Y001625
X0013975Y0011375
X0019225Y0010929
X002012Y0015389
X002187
X0023725Y0017725
X0026025Y00182
X002652Y0016764
X0026375Y0015575
X00271
X0027925Y001675
X0027925Y0019825
X0028675Y0020875
X00294
X0030075
X0032175Y00208
X0034275Y00204
X0033875Y001875
X0033375Y0019225
X0034425Y001825
X0035175Y0018375
X00359
X0036575
X0037327Y0018351
X0038677Y0018326
X00388Y0017125
X003975Y0016725
X004195Y0016825
X004195Y0017575
X0041225Y0018052
X0040577Y0018351
X00429Y0018075
X00442Y00181
X0045325Y0018125
X00477Y001765
X0046475Y001585
X0045825Y0015475
X004475Y001585
X004345Y001355
X0043325Y0012525
X0045375Y00127
X0044425Y0010163
X0043325Y0008775
X0047175Y0008025
Y0009575
Y0010925
X00488Y001115
X0048925Y0013041
X0048625Y0008425
X003845Y00087
X00388Y0014625
X0038025Y001505
X00371Y0015125
X0031325Y001485
X0028375Y0011575
X002497Y0010764
X0026675Y0008825
X0025375Y002015
X00245
X0021845Y0021439
X0019825Y0022
X00175Y0022675
X00174Y00256
X001745Y00287
X0016788
X0016125
X0018925Y00292
X0019825Y0028575
X0019775Y0032025
X0021825Y003265
X002355Y0028175
X0025575Y0029575
X0028676Y0030076
X0028076Y0030701
X0027625Y00315
X00282Y0027175
Y0025725
X00298Y0024975
X0030525
X00312
X003295
X003315Y002425
X00351Y00241
Y0024825
X00366Y0023925
X0037275Y0023675
X0037277Y0025351
X00372Y0026075
X00376Y0027775
X00379Y0028625
X0038487Y0029075
X0039352Y0028826
X0039827Y0029726
X0041277Y0028851
X004275Y002875
X00433Y00301
X00426Y0031625
X0041652Y0031777
X0040602Y0031776
X0039719Y0032805
X0039925Y00335
X0040275Y003525
X0040025Y0035875
X0038575Y0035975
X0041025Y00365
X0041Y00374
X0041Y0039013
X0040975Y0040625
Y004135
X004325Y0041375
X0043412Y0040213
X0043425Y00395
Y003855
X0043412Y0037838
X0043575Y003685
X00438Y00345
X0044975Y0033825
X0045075Y003235
X0044575Y00316
X00436Y003225
X0043075Y0032775
X0044125Y0032975
X0045675Y00309
X0044102Y0027851
X004465Y0027172
X0043852Y0026626
X0041875Y0026825
X0040625
X003945
X0040025Y002595
X0041225
X0040625Y0025075
X003945Y00251
X0040025Y0024225
X0041225
X004065Y002335
X0041875
Y00251
X0043852Y0024126
X0044075Y00223
X0045625Y00207
X0046375Y0020425
Y002115
X0046925Y0020775
X0047802Y0020776
X0048425Y0021925
X0041775Y0020925
X003925Y00212
X003945Y0023375
X00382Y0031725
X0036325Y0031625
X0036725Y003245
X003445Y0032275
X003465Y0031
X003265
X0033275Y002985
X00315Y0028925
X0030475Y0029375
X0030975Y0027975
X002995
X0029125Y002795
X0032025Y0027975
X0032425Y00352
X003375Y0036825
X003605
Y0040075
X003375
X003245Y0039375
X003045Y00385
X0030475Y0037475
X003045Y004075
X00328Y004375
Y00456
X00328Y004655
X0034125Y00454
X00375Y0046025
X0039625Y00453
X0039125Y00442
X004145Y00436
X00426Y004295
X0043875Y0044125
X00457Y0045075
X0047875Y00448
Y004565
X00483Y0044275
X00483Y00419
X004565
X0046325Y0040025
Y0039025
Y0038025
X0045325Y0039025
X0047325
X00469Y0046725
X0041725Y0046125
X003805Y004145
X0037825Y00391
X00386Y003925
X0026425Y0047
X00261Y0024525
X0027075Y0023075
Y0021625
X0019675Y001885
X0049475Y001905
X0050025Y0021125
X0049002Y0021551
X0049577Y0022501
X00522Y002235
X0052925
X00536
X00546Y0023
X005455Y002435
X0055425Y0024975
X00543Y0026325
X0053625Y0025825
X0052675
X00518
X0048975Y002565
X004915Y0030225
X0050025Y0031075
X0050425Y003225
X0049725Y003295
X00492Y0033875
X00506Y0034025
X005115Y00335
X0051653Y0032952
X00534Y003325
X0053669Y00339
X00531Y0035075
X0053075Y00382
X00537Y003915
X0053125Y0040375
X005305Y0041275
X0053075Y004235
X0054225Y00418
X00559Y0042
X005695Y00433
X0058125Y004345
X00599Y0044015
X0060975Y00444
Y00436
X0061775Y00436
X0060975Y0042075
X0064025Y00412
X0064875Y0040425
X006365Y0037725
X0062975Y003685
X00606
X0061275Y0037725
X0058975Y0036575
X0058275Y0036075
X0058975Y0035188
Y00338
X0057375Y0033525
X0058175Y0032125
X0058Y0031475
X0055875Y0032125
X005475Y0031675
X00543Y0027675
X005305Y00288
X0059275Y00273
X0060625Y002795
X0062375Y002755
X0065025Y00291
X00681Y00281
X0068175Y002725
X0068178Y0026051
X0068175Y0025225
X0068903Y0025551
X0068825Y0026675
X0068775Y0023275
X0068275Y002275
X006715Y002345
X00654Y002475
X00638Y0021975
X0061025
X00578
X00564Y0022375
X0056835Y0023035
X005695Y002395
X0057875Y0024325
X0058675Y00194
X005855Y00164
X005775
X0057575Y0017075
X0056725
X0055925Y00173
X0056Y00164
X00553Y0016375
X0055125Y0017075
X0054175
X00534
X0053209Y0016175
X0051835Y0015598
X005055Y0014925
X00499Y0014525
X0049925Y001345
X0050575Y0013825
X0049925Y0016425
X0051Y00168
X00534Y0019325
X005425Y00188
X005575Y0019
X00564Y00144
Y001275
X005775
X006005Y00124
Y00116
X00612Y0011475
X00621Y001005
X00637Y00094
X0063625Y00084
X006465Y001175
X006565Y0013025
X00653Y00144
X0064275Y0015025
X00612Y0014375
X0060975Y001625
X0063Y0018075
X006355Y0019275
X007265Y0018625
X0073925Y0018675
X0074125Y0019825
X0072875Y0020175
X007335Y0020675
X0073775Y0021175
X007445Y00227
X007425Y002335
X0075025
X0075325Y0024125
X007575Y0022475
X0075025Y0022275
X00769Y0021875
X007735Y0023725
X007785Y002475
X007865Y0022675
X0080025Y00226
X0081Y0022775
X0080875Y001875
X0079975
X0079275Y001865
X007855Y001875
X007765
X0076979Y0018601
X0081854Y0018851
X0082604Y0018376
X0083029Y0017126
X008295Y0016125
X0083395Y0020955
X008755Y002095
X008615Y0018675
X0087875Y001715
X008185Y0007875
X00694Y0007625
X006765Y0008875
X0068113Y0011238
X0068887
X0071925Y0020725
X0072703Y0027426
X0073575Y00283
X007505Y0027275
X007515Y0042575
X00777Y004305
X00781Y0041525
X0076775Y004625
X0073575Y00456
X007285Y00448
X0071575Y0044875
X0071565Y0044015
X007005Y0044875
X0069975Y0046175
X0068775Y0045275
X0068875Y0044525
Y00435
X0069475Y0043025
Y00423
X0066653Y0043627
X00663Y00467
X006275Y0046425
X0063125Y00457
X0060971Y0046425
X005855Y004565
X005625Y0045575
X0055725Y004495
X0052975Y004525
X0052025Y00442
X004925
Y0043375
X00492Y0038775
X00558Y003945
X006065Y003355
X006085Y0031775
X0062528Y0031752
X0063025Y003355
X006035Y0029925
X00564Y00111
X0056525Y0008
X005525
X00536Y0009975
X0050425Y0010275
X0050025Y0009525
X0050375Y000895
X0049875Y0008275
X00503Y0007625
X0071475Y0046825
X008035Y00469
X0090204Y0046902
X0093Y0045125
X009405Y0046025
X009505Y0046975
X0096575Y004695
X0095825Y004435
X00954Y00424
X009275
X0090475Y0041525
X00899Y00419
X008925
X0098795Y004121
X0099875Y0042325
X0099475Y00434
X01002Y00444
X0098933Y0045558
X0102725Y0045025
X0104225Y0045275
X0104025Y004435
X010415Y0046825
X0103825Y0041875
X010475Y00419
X010645Y0042225
X0108075Y0042425
X01085Y0041825
X0109425Y00419
X01104
X011035Y0039525
X0109425Y0039475
X0109725Y00387
X0110425Y00382
X0112275Y003875
X0111275Y0039825
X0108475Y0039625
X0106825
X010575Y0039475
X010595Y0038425
X01045Y0038858
X0104275Y00395
X010295Y003935
X0102375Y0038975
X0103425Y003815
X0102975Y003055
X010295Y0029275
X0102875Y0028075
X0101575Y002875
X0100875Y0029
X0101075Y002685
X0100325Y0026775
X0100075Y0026025
X009845Y0026125
X009785Y00257
X0097225Y002495
X009695Y0023125
X009755Y00228
X0098325Y002295
X0100875Y0023
X0101075Y00209
X01019Y00206
Y0018425
X0102825
X0103825
X010445Y0017575
X0104425Y002095
X01041Y002245
X0103875Y00238
X010715Y002435
X01074Y00251
X0107125Y0023025
X010785Y0023075
X0108303Y0022453
X0109125Y00228
X01102Y0022575
Y00234
X0110425Y0024325
X01113Y0024825
X011235Y00253
X01139Y002445
Y00234
Y002235
X011285Y00234
X011495
X011675Y00239
X0116825Y0025325
X01172Y002685
X0117775Y0026475
X011975Y0026575
X0121625Y002665
Y00276
X0122425
Y00291
X0121625
X012135Y0031175
X0119625Y0030375
X011885Y0029775
X011705Y0029275
X0116425Y002875
X011615Y0030975
X0114325Y00305
X0113025
X01137Y0028375
X01134Y0027725
X0108775Y0028275
X0107075Y00284
X0107225Y0027725
X01072Y00305
X01059
X01046Y00306
X01089Y0033625
X01177Y00326
X0120575Y0034125
Y0035025
X01217Y0036725
X011865Y0036875
X0117275Y004155
X01184Y0043375
Y0044375
Y0045375
Y0046375
X0116075Y0045375
X01161Y0043375
X01145Y0043075
X0112225Y0042675
X01115Y00458
X010845
X01146Y004025
X012055Y00433
X0123625Y0040425
X01233Y002605
X0122275Y0026025
X0125575Y002165
X011905Y0021075
X011825Y0021725
X0116625Y00224
X011585Y002095
X0116175Y001875
X011495Y001675
X011405
X0113175Y0016725
X01132Y0018075
Y0020475
X011095Y00224
X0106525Y002205
X0108025Y001885
X01091Y001735
X0111475Y001725
X0111475Y0012975
X0111475Y00122
X011175Y00108
X0113225Y000885
X0114125
X0115325
X0116225
X011835Y001065
X0119075Y00147
X011495Y001385
X0114025
X0106675Y001562
X0105775Y00114
X0100475Y0008825
X0101875Y0016025
X0100975Y0018425
X0099875Y001875
X0098975
X0098375Y00193
X009755Y001875
X009665
X00959Y001855
X0092925Y0018125
X009165Y00187
X00945Y002095
X0094075Y002225
X0093125Y0022675
X0095075Y0025
Y0027408
X009595Y0029605
X009675
X009475Y003045
X00918Y0030325
X009015Y0028275
X0091975Y002655
X009265
X009905Y002675
X0098675Y00275
X0098175Y002795
X0097375Y002095
X01225Y001655
X01221Y00096
X0120975Y0048775
X01184Y004925
Y00483
X0118075Y0047375
Y005015
X0118775Y0051225
X0119475Y00513
X0119425Y0050625
X01222Y0052225
X0114675Y0051475
X0115225Y005365
X01129Y005375
X0111275Y0054125
X011035Y00541
X0109425
X0108375Y0053025
X010685Y0053175
X0107425Y0053889
X0107425Y0056425
X01063Y00566
X01058Y0057425
X0105075Y0057925
X0105075Y0055675
X010415Y00557
X01028Y0055675
X01044Y005435
X01028Y005255
Y0051625
Y00507
X010015
Y0051625
Y005255
X0099925Y00539
X009635Y0054225
X0096175Y00565
X0096175Y0057225
Y005815
X0099325Y005875
X0101425Y005895
X010135Y0061125
X0100125Y006065
Y0062575
X010165Y0064225
X01018Y00665
X0105025Y0066
X01075Y006595
X0109725Y0066
X01099Y0064525
X01084Y006375
X0111Y00627
X011035Y006075
X0109375Y005995
X01099Y00574
X011035Y00565
X0111225
X01117Y0057725
X0113775Y00566
X0109425Y00565
X0108425Y0057
X0105775Y00607
X01038Y0061225
X0104375Y0063875
X010285Y006985
X0101325Y00699
X0102375Y0070975
X010295Y0071475
X0102425Y007215
X0101625
X00995Y00725
X009905Y007115
X0098Y0070775
X009755Y007165
X009495Y006915
X009065Y0070425
X0089775Y0070775
X009015Y007165
X00912Y007115
X009405Y0076
X0093225Y00784
X008988
X0092775Y00814
X0096675Y00805
X009865Y00821
X00995Y0081875
X01011Y0081575
X0102175
X010325
X0104325
X01054
X0105275Y0083825
X0105375Y0084525
X0104325Y0083825
X010325
X0102175Y0083875
X01011
X01019Y0085425
X010215Y008045
X0100945Y0078995
X01006Y007785
X0103125Y0077375
X01043Y0076525
X010545Y007865
X01074Y0076925
X0107Y00755
X01076Y00741
X0106475Y00737
X0105925Y007415
X0105925Y0072075
X010485Y0071325
X010485Y0072875
X01036Y007325
X01027Y0074575
X0102125Y00751
X0100075Y0074975
X0109Y0070425
X011095Y00694
X0110775Y00672
X011585Y006365
X012285Y00636
X0124525Y0068225
X012485Y0073375
X0119825Y007085
X01166Y00736
X011745Y0077075
X0114325Y0078475
X0112425Y0077275
X0111625Y008115
X0110675Y008225
X0112025Y0083875
X0114025
X0116025
Y0085875
X0112025
X01083Y0085375
X0107925Y0083775
X0107925Y0080875
X0117325Y00824
X0125275Y00811
X009395Y008545
X0090675Y0085825
X00929Y0064825
X0089225Y0063075
X008875Y0059875
X00926Y005755
Y005245
X0092125Y004945
X0090654Y0048777
X00912Y0047425
X0089779Y0047702
X009645Y00498
X009725Y0050525
X0099175Y0049775
X0098575Y0049
X010405Y0049125
X0104Y0048075
X011135Y004995
X011105Y00529
X01161Y0049225
Y00483
X009785Y0055925
X0088275Y0056525
X0087125Y00578
X0085825
X0085075Y0056525
X0084975Y005545
X00831Y0055475
X0082575Y0054575
X00823Y00531
X008415Y0052525
X0086525Y005235
X0087875Y0051825
X00863Y00495
X0080304Y0048852
X00804Y00478
X0081Y0047425
X007725Y0048075
X00771Y004935
X0076744Y00501
X007625Y0049675
X0075125Y0049175
X00724Y0047825
X00728Y0047225
X0071575Y004755
X0069875Y0047775
X00711Y0049675
X00687Y005015
X0068253Y0054628
X00663Y0054625
X006635Y005605
X0067478Y0056678
X0064525Y0056975
X00647Y005415
X00639Y005305
X0062375Y0054175
X00615Y00536
X0061525Y0054975
X00575Y0055125
X00591Y00529
X005775Y0049525
X00567Y0049175
X00568Y00479
X00583Y004825
X0060725Y0049625
X00631Y0047775
X005575Y005
X00524Y00489
X0052925Y0048125
X0051175Y00479
X005055Y0047225
X0049375
X00498Y004955
X005055Y0049725
X0049375Y005005
X0051175Y005605
X0052Y0055575
X00535Y0054625
X00531Y0058575
X0053075Y00595
X005305Y006055
X0053125Y0061575
X0054325Y006145
X005715Y0061775
X0058025Y00621
X0059225Y0062075
X0059375Y0059675
X00611Y0061
X00628Y0059875
X0063925Y006075
X00659Y0060225
X0066225Y00618
X006865Y0061175
X0068175Y006065
X0067675Y0059775
X0069078Y0059703
X0070053Y0060253
X007055Y0061025
X00696Y00615
X0071103Y0059778
X0070125Y0058425
X007045Y0057475
X00732Y0057
X0075Y0056475
X0074875Y0058625
X0074Y005875
X0074825Y0061374
X0075475Y0062
X0077375Y006415
X0080875Y00639
Y00625
X0081475Y006135
X0081254Y0059778
X008055Y0060425
X008155Y005665
X007725Y0056175
X007715Y00543
X0074425Y005455
X0073575Y005415
X0074775Y00536
X00711Y005305
X00708Y0064025
X0070025Y0064375
X0067579Y0064147
X0067628Y0068128
X0066775Y0069225
X0065525Y0069725
X0065175Y00708
X0063575Y0070275
X00632Y00713
X00619Y0071825
X00607Y007235
X0060325Y0073475
X006325Y0073725
X0062675Y0076025
X006195Y0077275
X0060675Y0077925
X00594Y0076
X0058125Y00795
X00572Y0080725
X0055175
X005432Y008055
X00556Y0081875
X0056075Y008415
X0057175Y0084525
X0057375Y0085475
X006Y00848
X0059975Y0082525
X0062975Y008565
X006455Y0086075
X006475Y0084725
X00651Y008415
X0068625Y0083075
Y0081375
Y0079675
X0070325Y0081375
X007265
X007365Y0081625
X0073275Y0080725
X007365Y0083275
X007295Y0086175
X007675Y0084525
X007845Y0083675
X0078175Y00811
X00825Y0081825
X00854Y0082375
X0088025Y0081475
X008734Y007785
X0086075Y0078995
X00848Y0078925
X0084775Y007745
X0082075Y0077125
X0081Y00756
X008285Y0075075
X008625Y0075
X0088625Y007615
X0088075Y007155
X0088425Y0068125
X0087125Y00607
X0085825
X0086475Y005925
X008425Y0058925
X0082075Y0065675
X0077175Y00699
X00773Y007135
X0075875Y0072625
X007465Y0072125
X0073275Y0074425
X007085Y00747
X006915Y007425
X0068725Y0076225
X0069925Y00762
X0070175Y007705
X00729Y007785
X00741Y0077925
X0076475Y0077675
X0078475Y007425
X00721Y00686
X0071025Y006915
X0069475Y0069125
X006945Y0070175
X00688Y0070425
X0066625Y00719
X006575Y0076825
X0064555Y0080075
X0066925Y0081375
X005178Y0081
X0050525Y0081475
X0049902Y0079629
X00501Y0076825
X004925Y0077275
X00508Y0076
X0051525Y00746
X005365Y0075075
X00545Y00756
X00547Y00747
X00558Y0074
X0056675Y0072925
X0056225Y0068075
X00554Y00672
X005505Y00658
X0057125Y006575
X005845Y006485
X00594Y006495
X005965Y0065675
X0059825Y006645
X00613Y00664
X00624Y0065375
X006315Y00651
X0062525Y006415
X0061325Y006425
X0059875Y00643
X005315Y006365
X0052425Y00665
X005045Y00658
X004965Y0067675
X00491Y0063975
X005045Y0061575
X0054Y007645
X0050327Y0085854
X0079025Y0085975
X0081775Y008615
X008545Y0086175
X0087925Y008575
X004675Y0086325
X0044475Y0086525
X0043175Y0084975
X0044125Y0082525
X004165Y00823
Y00802
X0042302Y0079779
X0042725Y0078925
X004345Y0077925
X00448Y00784
X0045925Y0077425
X00471Y0076125
X0048225Y0076275
X0048775Y0075
X004545Y00746
X0041925Y007495
X0039375Y00773
X0039475Y00813
X0036625Y0082375
X003705Y0082925
X00377Y00849
X00385Y0086
X0036125Y0085825
X0035475Y008655
X0034375Y0086425
X0033975Y00856
X00333Y00851
X003205Y008555
X003235Y00863
X003045Y00868
X0028675Y008655
X0027175Y0086575
X0026025Y008615
X002525Y008535
X00241Y0085775
X0024125Y008385
X0022925Y0084575
X00222Y008535
X0021425Y0084925
X002095Y0086025
X001965Y008535
X00185Y008365
X00184Y008245
X0018425Y0081575
Y008085
X00182Y007925
X0018475Y007845
X00174Y007885
X0017Y008005
X0017325Y008205
X001785Y008285
X00165Y008325
X00154Y008405
X0015925Y0085025
X00138Y0084475
X00141Y008155
X001305Y00801
X0012575Y0078675
X0015025Y007885
X001505Y007805
X0014975Y007565
X00138Y0075525
X00154Y0073475
X00165Y0071825
X0016475Y0070975
X00174Y0070275
X0017Y0069225
X0015925Y00686
X0015125Y00698
X001795Y00713
X001925Y007265
X0018475Y0074
X001965Y0075175
X00214Y007605
X0021425Y00769
X00207Y007685
X0021975Y007765
X002185Y007835
X00228Y007885
X002315Y007765
X0024125Y007725
X0024275Y007925
X0024075Y0080975
X002365Y008175
X00234Y0082375
X002255Y00822
X0020825Y008125
Y008045
X0021Y007965
X0022375Y00758
X00228Y0072925
X0021975Y007235
X00214Y00708
X0021Y0069725
X002105Y00674
X00218Y0062925
X0020875Y0058775
X0020075Y00583
X001805Y00598
X0017525Y006395
X00106Y00646
X0013Y005865
X0016525Y00554
X0017175Y005055
X002425Y0053225
X0030475Y0054675
X003315Y0056725
X00325Y0057475
X0033575Y0059175
X0035875
Y0062425
X0033575
X003245Y0061775
X003045Y006103
X0030475Y0060005
X0030475Y00651
X003335Y00649
X00328Y00663
Y00681
X003725Y0067075
X003785Y0061475
X003875Y006145
X0038975Y0062425
X0041Y0063
X0040975Y0064
X0042525Y006465
X00447Y0064525
X004545Y006485
X0045575Y0064125
X0046325Y00624
Y00614
X0045325
X0046325Y00604
X0046225Y00586
X0045575Y00583
X004365Y005685
X0043412Y0060213
X0043425Y0060925
Y006185
X0043412Y0062588
X0041Y0061388
Y0059675
X0040975Y00587
X0040325Y0057475
X0040675Y0054775
X0038875Y005195
X0033975Y0049525
X002865Y004915
X0028676Y0048277
X0029501Y0047577
X0045852Y0048702
X0046375Y004915
X00468Y0050575
X00474Y0049975
X0048675Y0049575
Y0047325
X0048925Y00575
X0048875Y0059525
X0047325Y00614
X0048425Y00672
X0047875Y0068025
X0045725
X0045025Y006655
X003905Y0059525
X00349Y00751
X003305Y0075325
Y00777
X0033025Y007875
X0032751Y0079504
X0031901Y0080554
X0032326Y0081454
X0032626Y0082804
X00334Y008285
X00342Y00786
X0030376Y0078054
X00305Y0076125
X0030375Y0075325
X00287Y0077225
X00287Y0079
X0028501Y0079654
X0030376Y0080279
X002995Y0081
X0029126Y0081879
X0028076Y0082379
X0027625Y0083325
X0026725Y008205
X00265Y008125
Y00805
X00267Y007885
X002725Y007805
X002635Y007685
X00253Y0075175
X001795Y007645
X00174Y007725
X0011425Y007255
X0029525Y00856
X0008116Y0079309
X000895Y00762
X000645Y0072375
X00033Y0073325
X000175Y007595
X000145Y008205
X00033Y008285
X0003525Y0065075
X0005525Y0059225
X0003675Y0050075
X0001825Y00902
X00079Y0089
X0012425Y009075
X00132Y00929
X00142Y0093775
X00152
X00162Y0092875
X0017225Y0094
X0018225
X00192Y0092875
X00202Y00928
X0021475Y0093425
X00222Y009015
Y0089425
X002355Y00895
X0024875Y0089537
X00255Y00887
X0026725Y0088475
X002775Y0088525
X0028225Y0088075
X0028375Y008895
X002805Y0089775
X0026163Y0089988
X00227Y008825
X002145Y008845
X001805Y0089625
X0015675Y008925
X0016625Y0088275
X0011025Y009515
X00321Y00953
X0032825Y009515
X003285Y009595
X003175Y0095875
X0033275Y0094575
X0032376Y0092751
X0032775Y0092175
X003165Y0091525
X0030573Y009175
X003035Y0088575
X0029675Y0087
X00346Y00895
X0037275Y008945
X003715Y0088225
X0037375Y008705
X0039375Y0088475
X004085Y00885
X00418Y0088475
X004225Y0089375
X0042275Y0090275
X0044175Y0089575
X0045075
X004365Y0089025
X004855Y0089675
X00396Y0095925
X0051225Y00906
X005255Y00886
X00549Y008755
X0055025Y0090025
X0058775Y0090375
X0061275Y0088675
X00646Y0089825
X0066475Y0087875
X006755
X0068675
X0069Y0089475
X00702Y0090525
X0067675Y00907
X0071525Y0089075
X0072725Y009025
X00741Y00879
X00774Y00883
X0080325Y0090075
X008425Y0089975
X008665
X0089275Y0090075
X00918Y0090225
X009755Y0091175
X0098Y00918
X010015Y0090375
X0101775Y00899
X0104375Y008875
Y008725
X0106375
Y008875
X0107575Y0088675
X0109Y0088225
X0110125Y0088525
X011065Y008895
X0111025Y0089525
X01112Y009025
Y009095
Y0091575
X0111225Y00923
X011185Y009265
X0112525Y00928
X0113125
X0113725Y0092575
X011435
X0114925Y00928
X0115525
X011615
X0116775
X0115975Y009125
X0114075Y0091325
X0112075
Y0089325
X0112325Y00882
Y00872
X0114125
Y00882
X0114075Y0089325
X0115975Y008925
X0115925Y00882
Y00872
X01112Y0088225
X010955Y0087325
X0108825Y009055
X0107725Y009105
X0107525Y009195
X0108225Y0091675
X010835Y0092575
Y0093225
X0108175Y0093925
X01082Y0094575
X0108675Y0095075
X0109175Y0095475
X01098Y0095625
X01104
X0111
X0111725
X0112325
X0112925
X0113525
X0114125
X0114725
X0115425Y00956
X0116125Y0095625
X0116775
X0108Y009585
X0106
Y009385
X0107Y00937
X0106275Y0091975
X0103375Y009275
X0104Y009385
X0102Y009385
X01023Y009585
X0104Y0095975
X009905Y008825
T04
X000675Y0023575
Y0024825
T06
X00328Y0004865
X00353
X00378
X00403
Y0012485
X00378
X00353
X00328
X012285Y0032925
Y0037925
T07
X00755Y001101
X0078
X008
X00825
Y001363
X008
X0078
X00755
X00945
X0097
X0099
X01015
Y001101
X0099
X0097
X00945
T08
X001088Y000428
X001342
X001596
X00185
X002104
Y000682
X002358
X002612
Y000428
X002358
X00185Y000682
X001596
X001342
X001088
X0125Y001119
Y001373
Y001627
Y001881
Y004219
Y004473
Y004727
Y004981
X00467Y009223
Y009477
X004416
X004162
Y009223
X004416
X004924
Y009477
X005178
Y009223
X005432
X005686
Y009477
X005432
X00594
Y009223
X006194
X006448
Y009477
X006702
X006956
Y009223
X006702
X00721
X007464
X007718
Y009477
X007972
X008226
X00848
X008734
Y009223
X00848
X008226
X007972
X007464Y009477
X00721
X006194
X008988
Y009223
T09
X007243Y00083
Y001398
X008557
Y00083
X009143
Y001398
X010457
Y00083
T10
X000528Y003265
Y004535
Y005518
Y006788
T11
X012345Y000355
X000355
X012345Y00775
X000355Y009345
X003675Y00935
X009475
M30
