M48
;Layer_Color=9474304
;FILE_FORMAT=4:3
METRIC,LZ
;TYPE=PLATED
T1F00S00C0.100
%
T01
X0067525Y0033175
X0066975Y0035125
X0033725Y0086325
X0033975Y008735
X00344Y008807
X0033975Y008855
X0033575
X0033175Y008815
Y008775
X0032775
X0032375
X0031975
Y008815
Y008855
Y008895
X0032375
Y008855
X0032775
X0032375Y008815
Y008935
X0032775
Y008975
X0033175
X003326Y009068
Y00912
X0031725Y00903
X0031575Y008935
X0031975
X0035025Y0087225
M30
