M48
;Layer_Color=9474304
;FILE_FORMAT=4:3
METRIC,LZ
;TYPE=PLATED
T5F00S00C0.600
%
G90
G05
T05
G00X0110105Y0001015
M15
G01Y0002515
M16
G00X0110405Y0006625
M15
G01Y0007625
M16
G00X0119045Y0006625
M15
G01Y0007625
M16
G00X0119345Y0001015
M15
G01Y0002515
M16
G00X00066Y0010005
M15
G01X00076
M16
G00X000099Y0009705
M15
G01X000249
M16
G00X000099Y0018945
M15
G01X000249
M16
G00X00066Y0018645
M15
G01X00076
M16
G00X01259Y0031925
M15
G01X01252
M16
G00X01259Y0038925
M15
G01X01252
M16
M17
M30
