G04*
G04 #@! TF.GenerationSoftware,Altium Limited,Altium Designer,23.2.1 (34)*
G04*
G04 Layer_Color=39423*
%FSLAX43Y43*%
%MOMM*%
G71*
G04*
G04 #@! TF.SameCoordinates,446EAD3A-CF97-43B9-853E-CE3D58A9E9AC*
G04*
G04*
G04 #@! TF.FilePolarity,Positive*
G04*
G01*
G75*
%ADD15C,0.100*%
%ADD18R,0.510X0.700*%
%ADD66R,0.330X0.425*%
%ADD89R,0.510X0.560*%
%ADD90R,0.350X0.350*%
%ADD91R,0.400X0.500*%
%ADD92R,0.640X0.890*%
%ADD94R,0.560X0.510*%
%ADD95R,1.780X1.400*%
%ADD97R,0.350X0.350*%
%ADD99R,0.700X0.510*%
%ADD101R,0.900X0.550*%
%ADD107R,1.300X1.550*%
%ADD108R,1.000X1.400*%
%ADD109R,1.500X1.100*%
%ADD110R,1.000X0.600*%
%ADD111R,0.800X0.800*%
%ADD112R,0.550X0.900*%
%ADD113R,1.350X0.400*%
%ADD114R,1.900X1.500*%
%ADD115R,2.000X1.300*%
%ADD116R,0.300X1.000*%
%ADD117R,1.400X2.600*%
%ADD118R,0.800X0.800*%
G36*
X54908Y-16225D02*
X55005Y-16239D01*
X55049Y-16247D01*
X55091Y-16258D01*
X55130Y-16267D01*
X55166Y-16278D01*
X55199Y-16289D01*
X55227Y-16300D01*
X55252Y-16311D01*
X55274Y-16319D01*
X55291Y-16328D01*
X55302Y-16333D01*
X55310Y-16336D01*
X55313Y-16339D01*
X55352Y-16364D01*
X55391Y-16389D01*
X55458Y-16447D01*
X55516Y-16505D01*
X55563Y-16567D01*
X55602Y-16619D01*
X55616Y-16642D01*
X55627Y-16664D01*
X55638Y-16680D01*
X55644Y-16691D01*
X55646Y-16700D01*
X55649Y-16703D01*
X55688Y-16794D01*
X55716Y-16886D01*
X55738Y-16975D01*
X55743Y-17016D01*
X55752Y-17055D01*
X55755Y-17091D01*
X55760Y-17122D01*
X55763Y-17152D01*
Y-17177D01*
X55766Y-17197D01*
Y-17211D01*
Y-17222D01*
Y-17225D01*
X55760Y-17327D01*
X55746Y-17424D01*
X55738Y-17469D01*
X55730Y-17510D01*
X55718Y-17552D01*
X55707Y-17588D01*
X55696Y-17622D01*
X55685Y-17649D01*
X55677Y-17677D01*
X55669Y-17696D01*
X55660Y-17716D01*
X55655Y-17727D01*
X55649Y-17735D01*
Y-17738D01*
X55599Y-17819D01*
X55544Y-17888D01*
X55485Y-17949D01*
X55430Y-17999D01*
X55377Y-18038D01*
X55358Y-18052D01*
X55338Y-18066D01*
X55321Y-18074D01*
X55310Y-18082D01*
X55302Y-18085D01*
X55299Y-18088D01*
X55255Y-18110D01*
X55210Y-18127D01*
X55122Y-18157D01*
X55036Y-18177D01*
X54955Y-18193D01*
X54919Y-18196D01*
X54886Y-18202D01*
X54855Y-18205D01*
X54830D01*
X54811Y-18207D01*
X54783D01*
X54705Y-18205D01*
X54630Y-18196D01*
X54561Y-18182D01*
X54500Y-18168D01*
X54475Y-18163D01*
X54450Y-18157D01*
X54428Y-18149D01*
X54408Y-18143D01*
X54394Y-18138D01*
X54383Y-18135D01*
X54378Y-18132D01*
X54375D01*
X54300Y-18102D01*
X54230Y-18066D01*
X54164Y-18027D01*
X54106Y-17991D01*
X54081Y-17974D01*
X54056Y-17957D01*
X54036Y-17944D01*
X54019Y-17932D01*
X54006Y-17921D01*
X53994Y-17913D01*
X53989Y-17910D01*
X53986Y-17907D01*
Y-17194D01*
X54802D01*
Y-17422D01*
X54236D01*
Y-17783D01*
X54269Y-17810D01*
X54308Y-17835D01*
X54350Y-17858D01*
X54389Y-17877D01*
X54422Y-17894D01*
X54453Y-17907D01*
X54464Y-17913D01*
X54469Y-17916D01*
X54475Y-17919D01*
X54478D01*
X54536Y-17938D01*
X54594Y-17955D01*
X54647Y-17966D01*
X54697Y-17971D01*
X54738Y-17977D01*
X54755D01*
X54772Y-17980D01*
X54800D01*
X54869Y-17977D01*
X54936Y-17966D01*
X54997Y-17952D01*
X55052Y-17938D01*
X55097Y-17921D01*
X55116Y-17916D01*
X55130Y-17910D01*
X55144Y-17905D01*
X55152Y-17899D01*
X55158Y-17896D01*
X55160D01*
X55219Y-17860D01*
X55272Y-17821D01*
X55316Y-17780D01*
X55352Y-17738D01*
X55383Y-17699D01*
X55402Y-17669D01*
X55410Y-17658D01*
X55413Y-17649D01*
X55419Y-17644D01*
Y-17641D01*
X55446Y-17572D01*
X55469Y-17499D01*
X55483Y-17427D01*
X55494Y-17358D01*
X55496Y-17327D01*
X55499Y-17299D01*
X55502Y-17272D01*
Y-17250D01*
X55505Y-17233D01*
Y-17219D01*
Y-17211D01*
Y-17208D01*
X55502Y-17130D01*
X55494Y-17061D01*
X55483Y-16994D01*
X55469Y-16936D01*
X55463Y-16911D01*
X55455Y-16889D01*
X55449Y-16869D01*
X55444Y-16853D01*
X55438Y-16839D01*
X55435Y-16830D01*
X55433Y-16825D01*
Y-16822D01*
X55413Y-16783D01*
X55394Y-16747D01*
X55374Y-16714D01*
X55355Y-16686D01*
X55338Y-16664D01*
X55324Y-16644D01*
X55313Y-16633D01*
X55310Y-16630D01*
X55280Y-16600D01*
X55247Y-16572D01*
X55210Y-16550D01*
X55177Y-16528D01*
X55149Y-16514D01*
X55127Y-16500D01*
X55111Y-16494D01*
X55105Y-16492D01*
X55055Y-16472D01*
X55005Y-16458D01*
X54952Y-16450D01*
X54905Y-16442D01*
X54863Y-16439D01*
X54847D01*
X54833Y-16436D01*
X54802D01*
X54750Y-16439D01*
X54700Y-16444D01*
X54655Y-16453D01*
X54616Y-16461D01*
X54583Y-16472D01*
X54558Y-16481D01*
X54544Y-16486D01*
X54539Y-16489D01*
X54497Y-16508D01*
X54461Y-16530D01*
X54428Y-16553D01*
X54403Y-16575D01*
X54383Y-16594D01*
X54366Y-16608D01*
X54358Y-16619D01*
X54355Y-16622D01*
X54330Y-16655D01*
X54311Y-16694D01*
X54292Y-16730D01*
X54275Y-16769D01*
X54264Y-16803D01*
X54255Y-16828D01*
X54253Y-16839D01*
X54250Y-16847D01*
X54247Y-16850D01*
Y-16853D01*
X54017Y-16791D01*
X54036Y-16722D01*
X54061Y-16661D01*
X54086Y-16605D01*
X54108Y-16561D01*
X54131Y-16525D01*
X54147Y-16500D01*
X54158Y-16483D01*
X54164Y-16478D01*
X54203Y-16433D01*
X54244Y-16397D01*
X54289Y-16364D01*
X54330Y-16336D01*
X54369Y-16317D01*
X54400Y-16300D01*
X54411Y-16295D01*
X54419Y-16292D01*
X54425Y-16289D01*
X54428D01*
X54491Y-16267D01*
X54558Y-16250D01*
X54619Y-16236D01*
X54677Y-16228D01*
X54730Y-16222D01*
X54752D01*
X54769Y-16220D01*
X54858D01*
X54908Y-16225D01*
D02*
G37*
G36*
X56410Y-18174D02*
X56140D01*
Y-17905D01*
X56410D01*
Y-18174D01*
D02*
G37*
G36*
X53622D02*
X52890D01*
X52823Y-18171D01*
X52765Y-18168D01*
X52712Y-18163D01*
X52667Y-18157D01*
X52631Y-18152D01*
X52604Y-18149D01*
X52587Y-18143D01*
X52581D01*
X52534Y-18130D01*
X52495Y-18116D01*
X52459Y-18099D01*
X52429Y-18082D01*
X52404Y-18071D01*
X52384Y-18060D01*
X52373Y-18052D01*
X52370Y-18049D01*
X52340Y-18024D01*
X52312Y-17994D01*
X52290Y-17963D01*
X52268Y-17935D01*
X52251Y-17907D01*
X52240Y-17888D01*
X52232Y-17874D01*
X52229Y-17869D01*
X52209Y-17824D01*
X52195Y-17780D01*
X52184Y-17738D01*
X52179Y-17699D01*
X52173Y-17666D01*
X52170Y-17638D01*
Y-17622D01*
Y-17619D01*
Y-17616D01*
X52173Y-17555D01*
X52184Y-17499D01*
X52201Y-17452D01*
X52218Y-17408D01*
X52234Y-17374D01*
X52251Y-17349D01*
X52262Y-17333D01*
X52265Y-17327D01*
X52304Y-17283D01*
X52345Y-17247D01*
X52393Y-17216D01*
X52434Y-17191D01*
X52473Y-17172D01*
X52506Y-17161D01*
X52518Y-17155D01*
X52526Y-17152D01*
X52531Y-17150D01*
X52534D01*
X52487Y-17122D01*
X52445Y-17094D01*
X52412Y-17064D01*
X52384Y-17036D01*
X52362Y-17014D01*
X52345Y-16991D01*
X52337Y-16980D01*
X52334Y-16975D01*
X52312Y-16933D01*
X52295Y-16894D01*
X52282Y-16855D01*
X52273Y-16819D01*
X52268Y-16789D01*
X52265Y-16764D01*
Y-16750D01*
Y-16744D01*
X52268Y-16697D01*
X52276Y-16650D01*
X52290Y-16608D01*
X52304Y-16569D01*
X52318Y-16536D01*
X52332Y-16514D01*
X52340Y-16497D01*
X52343Y-16492D01*
X52373Y-16450D01*
X52406Y-16411D01*
X52443Y-16381D01*
X52476Y-16356D01*
X52504Y-16336D01*
X52529Y-16322D01*
X52545Y-16314D01*
X52548Y-16311D01*
X52551D01*
X52604Y-16292D01*
X52662Y-16278D01*
X52720Y-16267D01*
X52776Y-16261D01*
X52826Y-16256D01*
X52848D01*
X52867Y-16253D01*
X53622D01*
Y-18174D01*
D02*
G37*
G36*
X51821D02*
X51565D01*
Y-17394D01*
X51074D01*
X51002Y-17391D01*
X50932Y-17386D01*
X50871Y-17377D01*
X50816Y-17366D01*
X50763Y-17355D01*
X50719Y-17341D01*
X50677Y-17324D01*
X50641Y-17308D01*
X50610Y-17294D01*
X50582Y-17277D01*
X50560Y-17263D01*
X50544Y-17250D01*
X50530Y-17241D01*
X50521Y-17233D01*
X50516Y-17227D01*
X50513Y-17225D01*
X50485Y-17191D01*
X50460Y-17158D01*
X50441Y-17125D01*
X50421Y-17088D01*
X50405Y-17052D01*
X50394Y-17019D01*
X50374Y-16955D01*
X50369Y-16925D01*
X50363Y-16897D01*
X50360Y-16872D01*
X50358Y-16853D01*
X50355Y-16833D01*
Y-16822D01*
Y-16814D01*
Y-16811D01*
X50358Y-16758D01*
X50363Y-16708D01*
X50374Y-16664D01*
X50383Y-16625D01*
X50394Y-16592D01*
X50405Y-16567D01*
X50410Y-16553D01*
X50413Y-16547D01*
X50435Y-16505D01*
X50463Y-16469D01*
X50488Y-16436D01*
X50513Y-16411D01*
X50535Y-16392D01*
X50552Y-16375D01*
X50563Y-16367D01*
X50569Y-16364D01*
X50605Y-16342D01*
X50646Y-16322D01*
X50685Y-16306D01*
X50721Y-16292D01*
X50755Y-16283D01*
X50780Y-16278D01*
X50799Y-16272D01*
X50805D01*
X50846Y-16267D01*
X50893Y-16261D01*
X50943Y-16258D01*
X50991Y-16256D01*
X51032Y-16253D01*
X51821D01*
Y-18174D01*
D02*
G37*
G36*
X90892Y-16753D02*
X90939Y-16761D01*
X90980Y-16769D01*
X91016Y-16780D01*
X91047Y-16794D01*
X91069Y-16803D01*
X91083Y-16811D01*
X91089Y-16814D01*
X91127Y-16839D01*
X91161Y-16866D01*
X91191Y-16894D01*
X91216Y-16922D01*
X91236Y-16944D01*
X91252Y-16964D01*
X91261Y-16975D01*
X91264Y-16980D01*
Y-16780D01*
X91475D01*
Y-18174D01*
X91239D01*
Y-17452D01*
X91236Y-17386D01*
X91233Y-17327D01*
X91227Y-17277D01*
X91219Y-17236D01*
X91211Y-17205D01*
X91205Y-17183D01*
X91202Y-17169D01*
X91200Y-17163D01*
X91183Y-17127D01*
X91164Y-17097D01*
X91144Y-17069D01*
X91125Y-17047D01*
X91105Y-17030D01*
X91091Y-17019D01*
X91080Y-17011D01*
X91078Y-17008D01*
X91044Y-16991D01*
X91014Y-16977D01*
X90980Y-16969D01*
X90953Y-16961D01*
X90930Y-16958D01*
X90911Y-16955D01*
X90894D01*
X90847Y-16958D01*
X90808Y-16966D01*
X90775Y-16980D01*
X90750Y-16994D01*
X90730Y-17011D01*
X90717Y-17022D01*
X90708Y-17033D01*
X90705Y-17036D01*
X90686Y-17069D01*
X90672Y-17105D01*
X90661Y-17144D01*
X90656Y-17183D01*
X90650Y-17216D01*
X90647Y-17247D01*
Y-17258D01*
Y-17263D01*
Y-17269D01*
Y-17272D01*
Y-18174D01*
X90411Y-18174D01*
Y-17366D01*
X90406Y-17291D01*
X90395Y-17227D01*
X90381Y-17175D01*
X90361Y-17130D01*
X90345Y-17097D01*
X90328Y-17075D01*
X90317Y-17061D01*
X90314Y-17055D01*
X90275Y-17022D01*
X90234Y-16997D01*
X90192Y-16980D01*
X90153Y-16966D01*
X90120Y-16961D01*
X90092Y-16958D01*
X90081Y-16955D01*
X90067D01*
X90036Y-16958D01*
X90011Y-16961D01*
X89986Y-16966D01*
X89967Y-16975D01*
X89948Y-16983D01*
X89936Y-16989D01*
X89928Y-16991D01*
X89925Y-16994D01*
X89903Y-17011D01*
X89887Y-17027D01*
X89873Y-17044D01*
X89862Y-17061D01*
X89853Y-17075D01*
X89848Y-17086D01*
X89842Y-17094D01*
Y-17097D01*
X89834Y-17122D01*
X89828Y-17155D01*
X89825Y-17188D01*
X89823Y-17222D01*
X89820Y-17252D01*
Y-17277D01*
Y-17294D01*
Y-17297D01*
Y-17299D01*
Y-18174D01*
X89584D01*
Y-17219D01*
Y-17175D01*
X89589Y-17136D01*
X89595Y-17097D01*
X89601Y-17064D01*
X89609Y-17030D01*
X89620Y-17002D01*
X89628Y-16977D01*
X89639Y-16952D01*
X89651Y-16933D01*
X89659Y-16914D01*
X89678Y-16889D01*
X89689Y-16872D01*
X89695Y-16866D01*
X89739Y-16828D01*
X89792Y-16800D01*
X89845Y-16778D01*
X89895Y-16764D01*
X89942Y-16755D01*
X89961Y-16753D01*
X89981D01*
X89995Y-16750D01*
X90014D01*
X90064Y-16753D01*
X90109Y-16761D01*
X90153Y-16772D01*
X90195Y-16789D01*
X90234Y-16808D01*
X90270Y-16828D01*
X90300Y-16850D01*
X90331Y-16872D01*
X90358Y-16897D01*
X90381Y-16919D01*
X90400Y-16939D01*
X90417Y-16958D01*
X90431Y-16975D01*
X90439Y-16986D01*
X90445Y-16994D01*
X90447Y-16997D01*
X90464Y-16955D01*
X90486Y-16919D01*
X90511Y-16889D01*
X90533Y-16864D01*
X90556Y-16841D01*
X90572Y-16828D01*
X90583Y-16819D01*
X90589Y-16816D01*
X90628Y-16794D01*
X90669Y-16778D01*
X90711Y-16766D01*
X90753Y-16758D01*
X90786Y-16753D01*
X90817Y-16750D01*
X90842D01*
X90892Y-16753D01*
D02*
G37*
G36*
X86175Y-16753D02*
X86233Y-16758D01*
X86289Y-16766D01*
X86333Y-16775D01*
X86372Y-16783D01*
X86400Y-16791D01*
X86411Y-16794D01*
X86419Y-16797D01*
X86422Y-16800D01*
X86425D01*
X86472Y-16819D01*
X86513Y-16844D01*
X86549Y-16866D01*
X86580Y-16889D01*
X86602Y-16911D01*
X86619Y-16927D01*
X86630Y-16939D01*
X86633Y-16941D01*
X86658Y-16977D01*
X86680Y-17016D01*
X86697Y-17055D01*
X86711Y-17091D01*
X86722Y-17127D01*
X86730Y-17152D01*
X86733Y-17163D01*
Y-17172D01*
X86735Y-17175D01*
Y-17177D01*
X86505Y-17208D01*
X86488Y-17158D01*
X86472Y-17113D01*
X86452Y-17077D01*
X86436Y-17050D01*
X86419Y-17027D01*
X86405Y-17014D01*
X86394Y-17005D01*
X86391Y-17002D01*
X86358Y-16983D01*
X86319Y-16969D01*
X86277Y-16958D01*
X86239Y-16952D01*
X86200Y-16947D01*
X86172Y-16944D01*
X86144D01*
X86080Y-16947D01*
X86025Y-16955D01*
X85980Y-16969D01*
X85941Y-16983D01*
X85914Y-17000D01*
X85892Y-17011D01*
X85878Y-17022D01*
X85875Y-17025D01*
X85853Y-17050D01*
X85836Y-17080D01*
X85822Y-17113D01*
X85814Y-17147D01*
X85808Y-17177D01*
X85805Y-17205D01*
Y-17222D01*
Y-17225D01*
Y-17227D01*
Y-17233D01*
Y-17244D01*
Y-17263D01*
X85808Y-17280D01*
Y-17286D01*
Y-17288D01*
X85836Y-17297D01*
X85867Y-17305D01*
X85930Y-17322D01*
X86003Y-17336D01*
X86069Y-17349D01*
X86103Y-17355D01*
X86133Y-17358D01*
X86161Y-17363D01*
X86183Y-17366D01*
X86202Y-17369D01*
X86216D01*
X86227Y-17372D01*
X86230D01*
X86280Y-17377D01*
X86322Y-17386D01*
X86358Y-17391D01*
X86386Y-17397D01*
X86408Y-17399D01*
X86425Y-17405D01*
X86436Y-17408D01*
X86438D01*
X86475Y-17419D01*
X86505Y-17430D01*
X86536Y-17444D01*
X86561Y-17455D01*
X86583Y-17466D01*
X86597Y-17477D01*
X86608Y-17483D01*
X86611Y-17486D01*
X86638Y-17505D01*
X86661Y-17527D01*
X86683Y-17549D01*
X86699Y-17572D01*
X86713Y-17591D01*
X86724Y-17608D01*
X86730Y-17619D01*
X86733Y-17622D01*
X86747Y-17652D01*
X86758Y-17685D01*
X86766Y-17716D01*
X86772Y-17746D01*
X86774Y-17771D01*
X86777Y-17791D01*
Y-17802D01*
Y-17808D01*
X86774Y-17841D01*
X86772Y-17869D01*
X86758Y-17927D01*
X86738Y-17974D01*
X86716Y-18016D01*
X86694Y-18049D01*
X86674Y-18074D01*
X86661Y-18088D01*
X86655Y-18093D01*
X86605Y-18130D01*
X86549Y-18157D01*
X86488Y-18177D01*
X86433Y-18191D01*
X86383Y-18199D01*
X86361Y-18202D01*
X86341D01*
X86325Y-18205D01*
X86302D01*
X86252Y-18202D01*
X86202Y-18196D01*
X86158Y-18191D01*
X86119Y-18182D01*
X86089Y-18174D01*
X86064Y-18166D01*
X86047Y-18163D01*
X86041Y-18160D01*
X85994Y-18141D01*
X85950Y-18116D01*
X85908Y-18088D01*
X85867Y-18063D01*
X85833Y-18038D01*
X85808Y-18019D01*
X85792Y-18005D01*
X85789Y-17999D01*
X85786D01*
X85780Y-18035D01*
X85775Y-18069D01*
X85769Y-18099D01*
X85761Y-18124D01*
X85753Y-18146D01*
X85747Y-18160D01*
X85744Y-18171D01*
X85742Y-18174D01*
X85495D01*
X85508Y-18143D01*
X85522Y-18113D01*
X85533Y-18085D01*
X85539Y-18060D01*
X85547Y-18038D01*
X85550Y-18021D01*
X85553Y-18010D01*
Y-18007D01*
X85556Y-17988D01*
X85558Y-17963D01*
Y-17935D01*
X85561Y-17905D01*
X85564Y-17835D01*
Y-17766D01*
X85567Y-17699D01*
Y-17669D01*
Y-17644D01*
Y-17622D01*
Y-17605D01*
Y-17594D01*
Y-17591D01*
Y-17275D01*
Y-17222D01*
X85569Y-17175D01*
X85572Y-17138D01*
Y-17108D01*
X85575Y-17086D01*
X85578Y-17069D01*
X85581Y-17061D01*
Y-17058D01*
X85589Y-17022D01*
X85600Y-16991D01*
X85611Y-16966D01*
X85625Y-16941D01*
X85636Y-16925D01*
X85644Y-16911D01*
X85650Y-16902D01*
X85653Y-16900D01*
X85675Y-16878D01*
X85700Y-16855D01*
X85728Y-16839D01*
X85756Y-16822D01*
X85780Y-16811D01*
X85800Y-16803D01*
X85814Y-16797D01*
X85819Y-16794D01*
X85864Y-16780D01*
X85911Y-16769D01*
X85958Y-16761D01*
X86005Y-16755D01*
X86047Y-16753D01*
X86078Y-16750D01*
X86108D01*
X86175Y-16753D01*
D02*
G37*
G36*
X94420Y-16436D02*
Y-16780D01*
X94595D01*
Y-16964D01*
X94420D01*
Y-17769D01*
Y-17808D01*
Y-17841D01*
X94417Y-17871D01*
X94415Y-17902D01*
Y-17927D01*
X94412Y-17949D01*
X94406Y-17985D01*
X94401Y-18013D01*
X94398Y-18032D01*
X94392Y-18044D01*
Y-18046D01*
X94381Y-18071D01*
X94365Y-18091D01*
X94348Y-18110D01*
X94334Y-18124D01*
X94317Y-18138D01*
X94306Y-18146D01*
X94298Y-18152D01*
X94295Y-18155D01*
X94265Y-18168D01*
X94234Y-18177D01*
X94201Y-18185D01*
X94167Y-18188D01*
X94140Y-18191D01*
X94117Y-18193D01*
X94095D01*
X94034Y-18191D01*
X94004Y-18188D01*
X93976Y-18182D01*
X93951Y-18180D01*
X93931Y-18177D01*
X93920Y-18174D01*
X93915D01*
X93945Y-17966D01*
X93968Y-17969D01*
X93990Y-17971D01*
X94009D01*
X94023Y-17974D01*
X94051D01*
X94087Y-17971D01*
X94112Y-17966D01*
X94126Y-17960D01*
X94131Y-17957D01*
X94151Y-17944D01*
X94162Y-17930D01*
X94170Y-17919D01*
X94173Y-17913D01*
X94176Y-17899D01*
X94179Y-17880D01*
X94181Y-17835D01*
X94184Y-17816D01*
Y-17799D01*
Y-17788D01*
Y-17783D01*
Y-16964D01*
X93945D01*
Y-16780D01*
X94184D01*
Y-16295D01*
X94420Y-16436D01*
D02*
G37*
G36*
X93673D02*
Y-16780D01*
X93848D01*
Y-16964D01*
X93673D01*
Y-17769D01*
Y-17808D01*
Y-17841D01*
X93671Y-17871D01*
X93668Y-17902D01*
Y-17927D01*
X93665Y-17949D01*
X93659Y-17985D01*
X93654Y-18013D01*
X93651Y-18032D01*
X93646Y-18044D01*
Y-18046D01*
X93634Y-18071D01*
X93618Y-18091D01*
X93601Y-18110D01*
X93587Y-18124D01*
X93571Y-18138D01*
X93559Y-18146D01*
X93551Y-18152D01*
X93548Y-18155D01*
X93518Y-18168D01*
X93487Y-18177D01*
X93454Y-18185D01*
X93421Y-18188D01*
X93393Y-18191D01*
X93371Y-18193D01*
X93348D01*
X93287Y-18191D01*
X93257Y-18188D01*
X93229Y-18182D01*
X93204Y-18180D01*
X93185Y-18177D01*
X93174Y-18174D01*
X93168D01*
X93199Y-17966D01*
X93221Y-17969D01*
X93243Y-17971D01*
X93262D01*
X93276Y-17974D01*
X93304D01*
X93340Y-17971D01*
X93365Y-17966D01*
X93379Y-17960D01*
X93385Y-17957D01*
X93404Y-17944D01*
X93415Y-17930D01*
X93423Y-17919D01*
X93426Y-17913D01*
X93429Y-17899D01*
X93432Y-17880D01*
X93435Y-17835D01*
X93437Y-17816D01*
Y-17799D01*
Y-17788D01*
Y-17783D01*
Y-16964D01*
X93199D01*
Y-16780D01*
X93437D01*
Y-16295D01*
X93673Y-16436D01*
D02*
G37*
G36*
X83820Y-16436D02*
Y-16780D01*
X83995D01*
Y-16964D01*
X83820D01*
Y-17769D01*
Y-17808D01*
Y-17841D01*
X83818Y-17871D01*
X83815Y-17902D01*
Y-17927D01*
X83812Y-17949D01*
X83807Y-17985D01*
X83801Y-18013D01*
X83798Y-18032D01*
X83793Y-18044D01*
Y-18046D01*
X83782Y-18071D01*
X83765Y-18091D01*
X83748Y-18110D01*
X83734Y-18124D01*
X83718Y-18138D01*
X83707Y-18146D01*
X83698Y-18152D01*
X83696Y-18155D01*
X83665Y-18168D01*
X83634Y-18177D01*
X83601Y-18185D01*
X83568Y-18188D01*
X83540Y-18191D01*
X83518Y-18193D01*
X83496D01*
X83435Y-18191D01*
X83404Y-18188D01*
X83376Y-18182D01*
X83351Y-18180D01*
X83332Y-18177D01*
X83321Y-18174D01*
X83315D01*
X83346Y-17966D01*
X83368Y-17969D01*
X83390Y-17971D01*
X83410D01*
X83423Y-17974D01*
X83451D01*
X83487Y-17971D01*
X83512Y-17966D01*
X83526Y-17960D01*
X83532Y-17957D01*
X83551Y-17944D01*
X83562Y-17930D01*
X83571Y-17919D01*
X83573Y-17913D01*
X83576Y-17899D01*
X83579Y-17880D01*
X83582Y-17835D01*
X83584Y-17816D01*
Y-17799D01*
Y-17788D01*
Y-17783D01*
Y-16964D01*
X83346D01*
Y-16780D01*
X83584D01*
Y-16295D01*
X83820Y-16436D01*
D02*
G37*
G36*
X82596Y-16753D02*
X82646Y-16758D01*
X82693Y-16766D01*
X82738Y-16780D01*
X82779Y-16794D01*
X82818Y-16811D01*
X82854Y-16828D01*
X82885Y-16847D01*
X82915Y-16864D01*
X82940Y-16883D01*
X82963Y-16900D01*
X82979Y-16914D01*
X82993Y-16927D01*
X83004Y-16936D01*
X83010Y-16941D01*
X83013Y-16944D01*
X83043Y-16983D01*
X83071Y-17025D01*
X83096Y-17066D01*
X83118Y-17111D01*
X83135Y-17158D01*
X83149Y-17202D01*
X83171Y-17291D01*
X83179Y-17330D01*
X83185Y-17369D01*
X83187Y-17402D01*
X83190Y-17433D01*
X83193Y-17458D01*
Y-17474D01*
Y-17488D01*
Y-17491D01*
X83190Y-17552D01*
X83185Y-17610D01*
X83176Y-17666D01*
X83165Y-17716D01*
X83151Y-17763D01*
X83138Y-17808D01*
X83121Y-17846D01*
X83104Y-17882D01*
X83088Y-17913D01*
X83071Y-17941D01*
X83057Y-17963D01*
X83043Y-17982D01*
X83032Y-17999D01*
X83024Y-18010D01*
X83018Y-18016D01*
X83015Y-18019D01*
X82979Y-18052D01*
X82943Y-18080D01*
X82904Y-18105D01*
X82863Y-18127D01*
X82824Y-18143D01*
X82782Y-18160D01*
X82704Y-18182D01*
X82668Y-18188D01*
X82635Y-18193D01*
X82604Y-18199D01*
X82579Y-18202D01*
X82560Y-18205D01*
X82530D01*
X82443Y-18199D01*
X82366Y-18185D01*
X82296Y-18168D01*
X82269Y-18157D01*
X82241Y-18146D01*
X82216Y-18135D01*
X82194Y-18124D01*
X82177Y-18116D01*
X82160Y-18107D01*
X82149Y-18099D01*
X82141Y-18093D01*
X82135Y-18088D01*
X82133D01*
X82077Y-18038D01*
X82033Y-17985D01*
X81994Y-17930D01*
X81966Y-17877D01*
X81944Y-17830D01*
X81935Y-17808D01*
X81927Y-17791D01*
X81922Y-17774D01*
X81919Y-17763D01*
X81916Y-17758D01*
Y-17755D01*
X82160Y-17724D01*
X82183Y-17777D01*
X82207Y-17821D01*
X82232Y-17860D01*
X82255Y-17891D01*
X82274Y-17913D01*
X82291Y-17930D01*
X82305Y-17941D01*
X82307Y-17944D01*
X82344Y-17966D01*
X82380Y-17982D01*
X82418Y-17994D01*
X82452Y-18002D01*
X82482Y-18007D01*
X82507Y-18010D01*
X82530D01*
X82563Y-18007D01*
X82593Y-18005D01*
X82649Y-17991D01*
X82699Y-17971D01*
X82743Y-17949D01*
X82777Y-17930D01*
X82802Y-17910D01*
X82818Y-17896D01*
X82821Y-17891D01*
X82824D01*
X82863Y-17841D01*
X82893Y-17785D01*
X82915Y-17724D01*
X82932Y-17669D01*
X82940Y-17619D01*
X82946Y-17597D01*
X82949Y-17577D01*
Y-17560D01*
X82952Y-17549D01*
Y-17541D01*
Y-17538D01*
X81910D01*
X81908Y-17510D01*
Y-17491D01*
Y-17480D01*
Y-17477D01*
X81910Y-17413D01*
X81916Y-17355D01*
X81924Y-17299D01*
X81935Y-17247D01*
X81949Y-17200D01*
X81963Y-17155D01*
X81980Y-17116D01*
X81996Y-17080D01*
X82013Y-17047D01*
X82030Y-17019D01*
X82044Y-16997D01*
X82058Y-16977D01*
X82069Y-16961D01*
X82077Y-16950D01*
X82083Y-16944D01*
X82085Y-16941D01*
X82119Y-16908D01*
X82155Y-16878D01*
X82194Y-16853D01*
X82232Y-16830D01*
X82271Y-16811D01*
X82307Y-16797D01*
X82346Y-16783D01*
X82380Y-16775D01*
X82416Y-16766D01*
X82446Y-16761D01*
X82474Y-16755D01*
X82496Y-16753D01*
X82516Y-16750D01*
X82543D01*
X82596Y-16753D01*
D02*
G37*
G36*
X97724Y-18174D02*
X96991D01*
X96924Y-18171D01*
X96866Y-18168D01*
X96813Y-18163D01*
X96769Y-18157D01*
X96733Y-18152D01*
X96705Y-18149D01*
X96688Y-18143D01*
X96683D01*
X96635Y-18130D01*
X96597Y-18116D01*
X96561Y-18099D01*
X96530Y-18082D01*
X96505Y-18071D01*
X96486Y-18060D01*
X96474Y-18052D01*
X96472Y-18049D01*
X96441Y-18024D01*
X96413Y-17994D01*
X96391Y-17963D01*
X96369Y-17935D01*
X96352Y-17907D01*
X96341Y-17888D01*
X96333Y-17874D01*
X96330Y-17869D01*
X96311Y-17824D01*
X96297Y-17780D01*
X96286Y-17738D01*
X96280Y-17699D01*
X96275Y-17666D01*
X96272Y-17638D01*
Y-17622D01*
Y-17619D01*
Y-17616D01*
X96275Y-17555D01*
X96286Y-17499D01*
X96302Y-17452D01*
X96319Y-17408D01*
X96336Y-17374D01*
X96352Y-17349D01*
X96363Y-17333D01*
X96366Y-17327D01*
X96405Y-17283D01*
X96447Y-17247D01*
X96494Y-17216D01*
X96536Y-17191D01*
X96574Y-17172D01*
X96608Y-17161D01*
X96619Y-17155D01*
X96627Y-17152D01*
X96633Y-17150D01*
X96635D01*
X96588Y-17122D01*
X96547Y-17094D01*
X96513Y-17064D01*
X96486Y-17036D01*
X96463Y-17014D01*
X96447Y-16991D01*
X96438Y-16980D01*
X96436Y-16975D01*
X96413Y-16933D01*
X96397Y-16894D01*
X96383Y-16855D01*
X96375Y-16819D01*
X96369Y-16789D01*
X96366Y-16764D01*
Y-16750D01*
Y-16744D01*
X96369Y-16697D01*
X96377Y-16650D01*
X96391Y-16608D01*
X96405Y-16569D01*
X96419Y-16536D01*
X96433Y-16514D01*
X96441Y-16497D01*
X96444Y-16492D01*
X96474Y-16450D01*
X96508Y-16411D01*
X96544Y-16381D01*
X96577Y-16356D01*
X96605Y-16336D01*
X96630Y-16322D01*
X96647Y-16314D01*
X96649Y-16311D01*
X96652D01*
X96705Y-16292D01*
X96763Y-16278D01*
X96822Y-16267D01*
X96877Y-16261D01*
X96927Y-16256D01*
X96949D01*
X96969Y-16253D01*
X97724D01*
Y-18174D01*
D02*
G37*
G36*
X88457Y-18174D02*
X88201D01*
Y-17394D01*
X87710D01*
X87638Y-17391D01*
X87568Y-17386D01*
X87507Y-17377D01*
X87452Y-17366D01*
X87399Y-17355D01*
X87355Y-17341D01*
X87313Y-17324D01*
X87277Y-17308D01*
X87246Y-17294D01*
X87219Y-17277D01*
X87196Y-17263D01*
X87180Y-17250D01*
X87166Y-17241D01*
X87157Y-17233D01*
X87152Y-17227D01*
X87149Y-17225D01*
X87121Y-17191D01*
X87096Y-17158D01*
X87077Y-17125D01*
X87058Y-17088D01*
X87041Y-17052D01*
X87030Y-17019D01*
X87010Y-16955D01*
X87005Y-16925D01*
X86999Y-16897D01*
X86996Y-16872D01*
X86994Y-16853D01*
X86991Y-16833D01*
Y-16822D01*
Y-16814D01*
Y-16811D01*
X86994Y-16758D01*
X86999Y-16708D01*
X87010Y-16664D01*
X87019Y-16625D01*
X87030Y-16592D01*
X87041Y-16567D01*
X87046Y-16553D01*
X87049Y-16547D01*
X87071Y-16505D01*
X87099Y-16469D01*
X87124Y-16436D01*
X87149Y-16411D01*
X87171Y-16392D01*
X87188Y-16375D01*
X87199Y-16367D01*
X87205Y-16364D01*
X87241Y-16342D01*
X87282Y-16322D01*
X87321Y-16306D01*
X87357Y-16292D01*
X87391Y-16283D01*
X87416Y-16278D01*
X87435Y-16272D01*
X87441D01*
X87482Y-16267D01*
X87530Y-16261D01*
X87579Y-16258D01*
X87627Y-16256D01*
X87668Y-16253D01*
X88457D01*
Y-18174D01*
D02*
G37*
G36*
X95436Y-16753D02*
X95481Y-16755D01*
X95567Y-16775D01*
X95642Y-16800D01*
X95675Y-16814D01*
X95705Y-16828D01*
X95733Y-16841D01*
X95755Y-16855D01*
X95778Y-16869D01*
X95794Y-16880D01*
X95808Y-16891D01*
X95819Y-16900D01*
X95825Y-16902D01*
X95828Y-16905D01*
X95866Y-16941D01*
X95897Y-16983D01*
X95928Y-17027D01*
X95950Y-17072D01*
X95972Y-17119D01*
X95989Y-17169D01*
X96003Y-17216D01*
X96014Y-17261D01*
X96025Y-17305D01*
X96030Y-17344D01*
X96036Y-17383D01*
X96039Y-17413D01*
Y-17441D01*
X96041Y-17461D01*
Y-17472D01*
Y-17477D01*
X96039Y-17541D01*
X96033Y-17602D01*
X96025Y-17658D01*
X96014Y-17710D01*
X96000Y-17758D01*
X95986Y-17802D01*
X95969Y-17844D01*
X95953Y-17880D01*
X95936Y-17913D01*
X95919Y-17941D01*
X95905Y-17963D01*
X95891Y-17982D01*
X95880Y-17999D01*
X95872Y-18010D01*
X95866Y-18016D01*
X95864Y-18019D01*
X95828Y-18052D01*
X95792Y-18080D01*
X95753Y-18105D01*
X95714Y-18127D01*
X95675Y-18143D01*
X95633Y-18160D01*
X95558Y-18182D01*
X95525Y-18188D01*
X95492Y-18193D01*
X95464Y-18199D01*
X95439Y-18202D01*
X95417Y-18205D01*
X95389D01*
X95322Y-18202D01*
X95261Y-18191D01*
X95203Y-18177D01*
X95156Y-18163D01*
X95114Y-18146D01*
X95097Y-18141D01*
X95084Y-18135D01*
X95070Y-18130D01*
X95061Y-18124D01*
X95059Y-18121D01*
X95056D01*
X95000Y-18085D01*
X94953Y-18046D01*
X94911Y-18007D01*
X94878Y-17969D01*
X94853Y-17935D01*
X94834Y-17907D01*
X94828Y-17896D01*
X94823Y-17888D01*
X94820Y-17885D01*
Y-17882D01*
X94792Y-17819D01*
X94773Y-17749D01*
X94756Y-17680D01*
X94748Y-17610D01*
X94742Y-17580D01*
Y-17552D01*
X94739Y-17524D01*
X94737Y-17502D01*
Y-17483D01*
Y-17469D01*
Y-17461D01*
Y-17458D01*
X94739Y-17397D01*
X94745Y-17341D01*
X94753Y-17288D01*
X94764Y-17238D01*
X94778Y-17191D01*
X94795Y-17150D01*
X94812Y-17108D01*
X94828Y-17075D01*
X94845Y-17044D01*
X94862Y-17016D01*
X94878Y-16991D01*
X94892Y-16972D01*
X94903Y-16958D01*
X94911Y-16947D01*
X94917Y-16941D01*
X94920Y-16939D01*
X94956Y-16905D01*
X94992Y-16878D01*
X95031Y-16850D01*
X95070Y-16830D01*
X95109Y-16811D01*
X95147Y-16797D01*
X95222Y-16772D01*
X95258Y-16766D01*
X95289Y-16761D01*
X95317Y-16755D01*
X95342Y-16753D01*
X95361Y-16750D01*
X95389D01*
X95436Y-16753D01*
D02*
G37*
G36*
X92449D02*
X92493Y-16755D01*
X92579Y-16775D01*
X92654Y-16800D01*
X92688Y-16814D01*
X92718Y-16828D01*
X92746Y-16841D01*
X92768Y-16855D01*
X92790Y-16869D01*
X92807Y-16880D01*
X92821Y-16891D01*
X92832Y-16900D01*
X92838Y-16902D01*
X92840Y-16905D01*
X92879Y-16941D01*
X92910Y-16983D01*
X92940Y-17027D01*
X92963Y-17072D01*
X92985Y-17119D01*
X93001Y-17169D01*
X93015Y-17216D01*
X93026Y-17261D01*
X93038Y-17305D01*
X93043Y-17344D01*
X93049Y-17383D01*
X93051Y-17413D01*
Y-17441D01*
X93054Y-17461D01*
Y-17472D01*
Y-17477D01*
X93051Y-17541D01*
X93046Y-17602D01*
X93038Y-17658D01*
X93026Y-17710D01*
X93013Y-17758D01*
X92999Y-17802D01*
X92982Y-17844D01*
X92965Y-17880D01*
X92949Y-17913D01*
X92932Y-17941D01*
X92918Y-17963D01*
X92904Y-17982D01*
X92893Y-17999D01*
X92885Y-18010D01*
X92879Y-18016D01*
X92877Y-18019D01*
X92840Y-18052D01*
X92804Y-18080D01*
X92765Y-18105D01*
X92727Y-18127D01*
X92688Y-18143D01*
X92646Y-18160D01*
X92571Y-18182D01*
X92538Y-18188D01*
X92504Y-18193D01*
X92477Y-18199D01*
X92452Y-18202D01*
X92430Y-18205D01*
X92402D01*
X92335Y-18202D01*
X92274Y-18191D01*
X92216Y-18177D01*
X92169Y-18163D01*
X92127Y-18146D01*
X92110Y-18141D01*
X92096Y-18135D01*
X92082Y-18130D01*
X92074Y-18124D01*
X92071Y-18121D01*
X92069D01*
X92013Y-18085D01*
X91966Y-18046D01*
X91924Y-18007D01*
X91891Y-17969D01*
X91866Y-17935D01*
X91847Y-17907D01*
X91841Y-17896D01*
X91835Y-17888D01*
X91833Y-17885D01*
Y-17882D01*
X91805Y-17819D01*
X91785Y-17749D01*
X91769Y-17680D01*
X91760Y-17610D01*
X91755Y-17580D01*
Y-17552D01*
X91752Y-17524D01*
X91749Y-17502D01*
Y-17483D01*
Y-17469D01*
Y-17461D01*
Y-17458D01*
X91752Y-17397D01*
X91758Y-17341D01*
X91766Y-17288D01*
X91777Y-17238D01*
X91791Y-17191D01*
X91808Y-17150D01*
X91824Y-17108D01*
X91841Y-17075D01*
X91858Y-17044D01*
X91874Y-17016D01*
X91891Y-16991D01*
X91905Y-16972D01*
X91916Y-16958D01*
X91924Y-16947D01*
X91930Y-16941D01*
X91933Y-16939D01*
X91969Y-16905D01*
X92005Y-16878D01*
X92044Y-16850D01*
X92082Y-16830D01*
X92121Y-16811D01*
X92160Y-16797D01*
X92235Y-16772D01*
X92271Y-16766D01*
X92302Y-16761D01*
X92330Y-16755D01*
X92355Y-16753D01*
X92374Y-16750D01*
X92402D01*
X92449Y-16753D01*
D02*
G37*
G36*
X84825Y-16755D02*
X84859Y-16758D01*
X84889Y-16764D01*
X84914Y-16769D01*
X84934Y-16775D01*
X84945Y-16778D01*
X84950Y-16780D01*
X84984Y-16791D01*
X85014Y-16803D01*
X85039Y-16814D01*
X85061Y-16825D01*
X85078Y-16833D01*
X85089Y-16841D01*
X85098Y-16844D01*
X85100Y-16847D01*
X85128Y-16866D01*
X85150Y-16889D01*
X85170Y-16914D01*
X85186Y-16933D01*
X85200Y-16952D01*
X85209Y-16966D01*
X85214Y-16977D01*
X85217Y-16980D01*
X85231Y-17011D01*
X85242Y-17039D01*
X85247Y-17069D01*
X85253Y-17094D01*
X85256Y-17119D01*
X85259Y-17136D01*
Y-17147D01*
Y-17152D01*
X85256Y-17191D01*
X85250Y-17225D01*
X85242Y-17258D01*
X85234Y-17286D01*
X85225Y-17308D01*
X85217Y-17327D01*
X85211Y-17338D01*
X85209Y-17341D01*
X85186Y-17372D01*
X85161Y-17397D01*
X85136Y-17419D01*
X85111Y-17438D01*
X85089Y-17452D01*
X85073Y-17463D01*
X85061Y-17469D01*
X85056Y-17472D01*
X85036Y-17480D01*
X85011Y-17491D01*
X84956Y-17510D01*
X84898Y-17527D01*
X84837Y-17547D01*
X84784Y-17560D01*
X84759Y-17569D01*
X84737Y-17574D01*
X84720Y-17580D01*
X84706Y-17583D01*
X84698Y-17585D01*
X84695D01*
X84659Y-17594D01*
X84628Y-17602D01*
X84601Y-17610D01*
X84576Y-17619D01*
X84553Y-17624D01*
X84534Y-17633D01*
X84501Y-17644D01*
X84478Y-17652D01*
X84465Y-17660D01*
X84456Y-17663D01*
X84453Y-17666D01*
X84428Y-17683D01*
X84412Y-17705D01*
X84398Y-17724D01*
X84390Y-17744D01*
X84384Y-17763D01*
X84381Y-17777D01*
Y-17788D01*
Y-17791D01*
X84384Y-17824D01*
X84392Y-17852D01*
X84406Y-17880D01*
X84420Y-17902D01*
X84437Y-17921D01*
X84448Y-17935D01*
X84459Y-17944D01*
X84462Y-17946D01*
X84495Y-17969D01*
X84531Y-17982D01*
X84573Y-17994D01*
X84612Y-18002D01*
X84648Y-18007D01*
X84676Y-18010D01*
X84703D01*
X84762Y-18007D01*
X84812Y-17999D01*
X84853Y-17988D01*
X84889Y-17974D01*
X84917Y-17960D01*
X84939Y-17949D01*
X84950Y-17941D01*
X84956Y-17938D01*
X84986Y-17907D01*
X85011Y-17871D01*
X85028Y-17835D01*
X85042Y-17802D01*
X85053Y-17771D01*
X85059Y-17744D01*
X85064Y-17727D01*
Y-17724D01*
Y-17721D01*
X85297Y-17758D01*
X85278Y-17835D01*
X85253Y-17905D01*
X85222Y-17960D01*
X85192Y-18007D01*
X85164Y-18046D01*
X85139Y-18071D01*
X85123Y-18088D01*
X85120Y-18091D01*
X85117Y-18093D01*
X85089Y-18113D01*
X85059Y-18130D01*
X84992Y-18157D01*
X84923Y-18177D01*
X84856Y-18191D01*
X84825Y-18196D01*
X84798Y-18199D01*
X84770Y-18202D01*
X84748D01*
X84728Y-18205D01*
X84703D01*
X84642Y-18202D01*
X84589Y-18196D01*
X84540Y-18188D01*
X84495Y-18177D01*
X84459Y-18166D01*
X84431Y-18157D01*
X84415Y-18152D01*
X84412Y-18149D01*
X84409D01*
X84362Y-18124D01*
X84323Y-18099D01*
X84290Y-18071D01*
X84259Y-18046D01*
X84237Y-18024D01*
X84223Y-18005D01*
X84212Y-17994D01*
X84209Y-17988D01*
X84187Y-17949D01*
X84170Y-17907D01*
X84156Y-17871D01*
X84148Y-17838D01*
X84143Y-17808D01*
X84140Y-17785D01*
Y-17771D01*
Y-17766D01*
X84143Y-17721D01*
X84148Y-17683D01*
X84159Y-17649D01*
X84168Y-17619D01*
X84179Y-17594D01*
X84190Y-17577D01*
X84195Y-17566D01*
X84198Y-17563D01*
X84220Y-17535D01*
X84245Y-17510D01*
X84270Y-17488D01*
X84295Y-17472D01*
X84320Y-17458D01*
X84337Y-17449D01*
X84348Y-17444D01*
X84354Y-17441D01*
X84373Y-17433D01*
X84395Y-17424D01*
X84448Y-17405D01*
X84506Y-17386D01*
X84564Y-17369D01*
X84617Y-17352D01*
X84642Y-17347D01*
X84662Y-17341D01*
X84678Y-17336D01*
X84692Y-17333D01*
X84701Y-17330D01*
X84703D01*
X84734Y-17322D01*
X84762Y-17313D01*
X84787Y-17308D01*
X84809Y-17299D01*
X84845Y-17291D01*
X84873Y-17283D01*
X84892Y-17275D01*
X84903Y-17272D01*
X84909Y-17269D01*
X84912D01*
X84934Y-17258D01*
X84953Y-17250D01*
X84970Y-17238D01*
X84981Y-17230D01*
X84992Y-17222D01*
X84998Y-17213D01*
X85000Y-17211D01*
X85003Y-17208D01*
X85020Y-17180D01*
X85028Y-17152D01*
Y-17141D01*
X85031Y-17133D01*
Y-17127D01*
Y-17125D01*
X85028Y-17100D01*
X85020Y-17075D01*
X85009Y-17052D01*
X84995Y-17036D01*
X84984Y-17019D01*
X84973Y-17008D01*
X84964Y-17002D01*
X84962Y-17000D01*
X84931Y-16980D01*
X84895Y-16966D01*
X84856Y-16958D01*
X84820Y-16950D01*
X84784Y-16947D01*
X84756Y-16944D01*
X84728D01*
X84681Y-16947D01*
X84637Y-16952D01*
X84601Y-16964D01*
X84573Y-16975D01*
X84548Y-16986D01*
X84531Y-16997D01*
X84520Y-17002D01*
X84517Y-17005D01*
X84490Y-17030D01*
X84470Y-17058D01*
X84453Y-17086D01*
X84440Y-17111D01*
X84431Y-17136D01*
X84426Y-17155D01*
X84423Y-17166D01*
Y-17172D01*
X84192Y-17141D01*
X84204Y-17094D01*
X84215Y-17052D01*
X84229Y-17016D01*
X84242Y-16983D01*
X84256Y-16961D01*
X84267Y-16941D01*
X84273Y-16930D01*
X84276Y-16927D01*
X84301Y-16900D01*
X84329Y-16875D01*
X84359Y-16853D01*
X84390Y-16833D01*
X84417Y-16819D01*
X84440Y-16808D01*
X84453Y-16803D01*
X84456Y-16800D01*
X84459D01*
X84506Y-16783D01*
X84556Y-16772D01*
X84603Y-16761D01*
X84648Y-16755D01*
X84689Y-16753D01*
X84720Y-16750D01*
X84787D01*
X84825Y-16755D01*
D02*
G37*
%LPC*%
G36*
X53367Y-16481D02*
X52912D01*
X52851Y-16486D01*
X52803Y-16489D01*
X52762Y-16494D01*
X52731Y-16500D01*
X52712Y-16503D01*
X52698Y-16508D01*
X52695D01*
X52665Y-16519D01*
X52637Y-16536D01*
X52615Y-16553D01*
X52595Y-16569D01*
X52581Y-16583D01*
X52570Y-16597D01*
X52565Y-16605D01*
X52562Y-16608D01*
X52545Y-16636D01*
X52534Y-16664D01*
X52526Y-16691D01*
X52520Y-16719D01*
X52518Y-16741D01*
X52515Y-16758D01*
Y-16769D01*
Y-16775D01*
X52518Y-16811D01*
X52523Y-16844D01*
X52531Y-16872D01*
X52540Y-16894D01*
X52548Y-16914D01*
X52556Y-16930D01*
X52562Y-16939D01*
X52565Y-16941D01*
X52584Y-16964D01*
X52609Y-16986D01*
X52634Y-17002D01*
X52656Y-17014D01*
X52679Y-17025D01*
X52695Y-17033D01*
X52706Y-17036D01*
X52712Y-17039D01*
X52742Y-17044D01*
X52781Y-17050D01*
X52820Y-17052D01*
X52859Y-17055D01*
X52895Y-17058D01*
X53367D01*
Y-16481D01*
D02*
G37*
G36*
Y-17286D02*
X52862D01*
X52803Y-17291D01*
X52756Y-17297D01*
X52717Y-17302D01*
X52687Y-17308D01*
X52662Y-17313D01*
X52651Y-17316D01*
X52645Y-17319D01*
X52609Y-17333D01*
X52579Y-17349D01*
X52551Y-17369D01*
X52529Y-17388D01*
X52512Y-17405D01*
X52501Y-17419D01*
X52493Y-17430D01*
X52490Y-17433D01*
X52470Y-17463D01*
X52456Y-17494D01*
X52445Y-17524D01*
X52440Y-17552D01*
X52434Y-17577D01*
X52431Y-17599D01*
Y-17610D01*
Y-17616D01*
X52434Y-17649D01*
X52437Y-17683D01*
X52443Y-17710D01*
X52451Y-17733D01*
X52459Y-17752D01*
X52465Y-17769D01*
X52468Y-17777D01*
X52470Y-17780D01*
X52487Y-17805D01*
X52501Y-17827D01*
X52520Y-17844D01*
X52534Y-17860D01*
X52548Y-17871D01*
X52559Y-17880D01*
X52567Y-17885D01*
X52570Y-17888D01*
X52617Y-17910D01*
X52665Y-17927D01*
X52684Y-17932D01*
X52701Y-17935D01*
X52712Y-17938D01*
X52715D01*
X52737Y-17941D01*
X52762Y-17944D01*
X52820Y-17946D01*
X53367D01*
Y-17286D01*
D02*
G37*
G36*
X51565Y-16481D02*
X51016D01*
X50966Y-16483D01*
X50924Y-16486D01*
X50891Y-16489D01*
X50868Y-16494D01*
X50852Y-16497D01*
X50841Y-16500D01*
X50838D01*
X50802Y-16514D01*
X50771Y-16530D01*
X50744Y-16547D01*
X50719Y-16567D01*
X50702Y-16586D01*
X50688Y-16600D01*
X50680Y-16611D01*
X50677Y-16614D01*
X50657Y-16647D01*
X50641Y-16680D01*
X50630Y-16716D01*
X50624Y-16747D01*
X50619Y-16775D01*
X50616Y-16800D01*
Y-16814D01*
Y-16816D01*
Y-16819D01*
X50621Y-16878D01*
X50632Y-16927D01*
X50649Y-16972D01*
X50669Y-17008D01*
X50688Y-17036D01*
X50705Y-17058D01*
X50716Y-17069D01*
X50721Y-17075D01*
X50741Y-17091D01*
X50766Y-17105D01*
X50818Y-17127D01*
X50877Y-17144D01*
X50935Y-17155D01*
X50988Y-17161D01*
X51010Y-17163D01*
X51029D01*
X51049Y-17166D01*
X51565D01*
Y-16481D01*
D02*
G37*
G36*
X85808Y-17474D02*
X85805D01*
X85808Y-17563D01*
X85811Y-17619D01*
X85814Y-17666D01*
X85819Y-17705D01*
X85828Y-17738D01*
X85836Y-17763D01*
X85842Y-17783D01*
X85844Y-17794D01*
X85847Y-17796D01*
X85869Y-17833D01*
X85892Y-17866D01*
X85919Y-17894D01*
X85944Y-17916D01*
X85966Y-17935D01*
X85986Y-17949D01*
X85997Y-17957D01*
X86003Y-17960D01*
X86044Y-17980D01*
X86086Y-17994D01*
X86125Y-18005D01*
X86164Y-18010D01*
X86194Y-18016D01*
X86222Y-18019D01*
X86244D01*
X86294Y-18016D01*
X86336Y-18010D01*
X86372Y-17999D01*
X86402Y-17988D01*
X86425Y-17977D01*
X86441Y-17966D01*
X86452Y-17960D01*
X86455Y-17957D01*
X86477Y-17932D01*
X86494Y-17905D01*
X86508Y-17880D01*
X86516Y-17855D01*
X86522Y-17833D01*
X86525Y-17816D01*
Y-17802D01*
Y-17799D01*
X86522Y-17777D01*
X86519Y-17755D01*
X86513Y-17738D01*
X86508Y-17721D01*
X86502Y-17708D01*
X86500Y-17696D01*
X86494Y-17691D01*
Y-17688D01*
X86466Y-17655D01*
X86433Y-17633D01*
X86422Y-17624D01*
X86411Y-17619D01*
X86402Y-17613D01*
X86400D01*
X86372Y-17602D01*
X86341Y-17594D01*
X86308Y-17585D01*
X86275Y-17580D01*
X86244Y-17574D01*
X86216Y-17569D01*
X86200Y-17566D01*
X86194D01*
X86147Y-17558D01*
X86103Y-17552D01*
X86064Y-17544D01*
X86025Y-17535D01*
X85989Y-17527D01*
X85958Y-17519D01*
X85928Y-17513D01*
X85903Y-17505D01*
X85880Y-17499D01*
X85861Y-17494D01*
X85844Y-17488D01*
X85830Y-17483D01*
X85819Y-17480D01*
X85811Y-17477D01*
X85808Y-17474D01*
D02*
G37*
G36*
X82557Y-16944D02*
X82541D01*
X82507Y-16947D01*
X82477Y-16950D01*
X82418Y-16966D01*
X82369Y-16989D01*
X82327Y-17014D01*
X82294Y-17039D01*
X82269Y-17061D01*
X82255Y-17077D01*
X82249Y-17080D01*
Y-17083D01*
X82224Y-17119D01*
X82202Y-17161D01*
X82188Y-17202D01*
X82174Y-17247D01*
X82166Y-17283D01*
X82160Y-17316D01*
Y-17327D01*
X82158Y-17336D01*
Y-17341D01*
Y-17344D01*
X82938D01*
X82929Y-17280D01*
X82913Y-17222D01*
X82893Y-17172D01*
X82871Y-17133D01*
X82852Y-17100D01*
X82832Y-17075D01*
X82821Y-17061D01*
X82815Y-17055D01*
X82771Y-17019D01*
X82727Y-16991D01*
X82679Y-16972D01*
X82635Y-16958D01*
X82599Y-16950D01*
X82568Y-16947D01*
X82557Y-16944D01*
D02*
G37*
G36*
X97468Y-16481D02*
X97013D01*
X96952Y-16486D01*
X96905Y-16489D01*
X96863Y-16494D01*
X96833Y-16500D01*
X96813Y-16503D01*
X96799Y-16508D01*
X96797D01*
X96766Y-16519D01*
X96738Y-16536D01*
X96716Y-16553D01*
X96697Y-16569D01*
X96683Y-16583D01*
X96672Y-16597D01*
X96666Y-16605D01*
X96663Y-16608D01*
X96647Y-16636D01*
X96635Y-16664D01*
X96627Y-16691D01*
X96622Y-16719D01*
X96619Y-16741D01*
X96616Y-16758D01*
Y-16769D01*
Y-16775D01*
X96619Y-16811D01*
X96624Y-16844D01*
X96633Y-16872D01*
X96641Y-16894D01*
X96649Y-16914D01*
X96658Y-16930D01*
X96663Y-16939D01*
X96666Y-16941D01*
X96685Y-16964D01*
X96710Y-16986D01*
X96735Y-17002D01*
X96758Y-17014D01*
X96780Y-17025D01*
X96797Y-17033D01*
X96808Y-17036D01*
X96813Y-17039D01*
X96844Y-17044D01*
X96883Y-17050D01*
X96921Y-17052D01*
X96960Y-17055D01*
X96996Y-17058D01*
X97468D01*
Y-16481D01*
D02*
G37*
G36*
Y-17286D02*
X96963D01*
X96905Y-17291D01*
X96858Y-17297D01*
X96819Y-17302D01*
X96788Y-17308D01*
X96763Y-17313D01*
X96752Y-17316D01*
X96747Y-17319D01*
X96710Y-17333D01*
X96680Y-17349D01*
X96652Y-17369D01*
X96630Y-17388D01*
X96613Y-17405D01*
X96602Y-17419D01*
X96594Y-17430D01*
X96591Y-17433D01*
X96572Y-17463D01*
X96558Y-17494D01*
X96547Y-17524D01*
X96541Y-17552D01*
X96536Y-17577D01*
X96533Y-17599D01*
Y-17610D01*
Y-17616D01*
X96536Y-17649D01*
X96538Y-17683D01*
X96544Y-17710D01*
X96552Y-17733D01*
X96561Y-17752D01*
X96566Y-17769D01*
X96569Y-17777D01*
X96572Y-17780D01*
X96588Y-17805D01*
X96602Y-17827D01*
X96622Y-17844D01*
X96635Y-17860D01*
X96649Y-17871D01*
X96660Y-17880D01*
X96669Y-17885D01*
X96672Y-17888D01*
X96719Y-17910D01*
X96766Y-17927D01*
X96785Y-17932D01*
X96802Y-17935D01*
X96813Y-17938D01*
X96816D01*
X96838Y-17941D01*
X96863Y-17944D01*
X96921Y-17946D01*
X97468D01*
Y-17286D01*
D02*
G37*
G36*
X88201Y-16481D02*
X87652D01*
X87602Y-16483D01*
X87560Y-16486D01*
X87527Y-16489D01*
X87505Y-16494D01*
X87488Y-16497D01*
X87477Y-16500D01*
X87474D01*
X87438Y-16514D01*
X87407Y-16530D01*
X87380Y-16547D01*
X87355Y-16567D01*
X87338Y-16586D01*
X87324Y-16600D01*
X87316Y-16611D01*
X87313Y-16614D01*
X87294Y-16647D01*
X87277Y-16680D01*
X87266Y-16716D01*
X87260Y-16747D01*
X87255Y-16775D01*
X87252Y-16800D01*
Y-16814D01*
Y-16816D01*
Y-16819D01*
X87257Y-16878D01*
X87269Y-16927D01*
X87285Y-16972D01*
X87305Y-17008D01*
X87324Y-17036D01*
X87341Y-17058D01*
X87352Y-17069D01*
X87357Y-17075D01*
X87377Y-17091D01*
X87402Y-17105D01*
X87455Y-17127D01*
X87513Y-17144D01*
X87571Y-17155D01*
X87624Y-17161D01*
X87646Y-17163D01*
X87666D01*
X87685Y-17166D01*
X88201D01*
Y-16481D01*
D02*
G37*
G36*
X95406Y-16944D02*
X95389D01*
X95356Y-16947D01*
X95325Y-16950D01*
X95270Y-16964D01*
X95220Y-16986D01*
X95178Y-17011D01*
X95145Y-17036D01*
X95120Y-17055D01*
X95103Y-17072D01*
X95097Y-17075D01*
Y-17077D01*
X95075Y-17102D01*
X95059Y-17133D01*
X95028Y-17194D01*
X95006Y-17261D01*
X94992Y-17322D01*
X94984Y-17380D01*
X94981Y-17405D01*
Y-17427D01*
X94978Y-17444D01*
Y-17458D01*
Y-17466D01*
Y-17469D01*
Y-17519D01*
X94984Y-17566D01*
X94989Y-17608D01*
X94998Y-17649D01*
X95006Y-17685D01*
X95017Y-17719D01*
X95025Y-17749D01*
X95036Y-17777D01*
X95048Y-17799D01*
X95059Y-17821D01*
X95070Y-17838D01*
X95078Y-17852D01*
X95086Y-17863D01*
X95092Y-17871D01*
X95095Y-17874D01*
X95097Y-17877D01*
X95120Y-17899D01*
X95145Y-17921D01*
X95192Y-17955D01*
X95242Y-17977D01*
X95286Y-17994D01*
X95328Y-18002D01*
X95358Y-18007D01*
X95372Y-18010D01*
X95389D01*
X95422Y-18007D01*
X95453Y-18005D01*
X95511Y-17991D01*
X95561Y-17969D01*
X95603Y-17944D01*
X95636Y-17921D01*
X95661Y-17899D01*
X95678Y-17885D01*
X95680Y-17880D01*
X95683D01*
X95703Y-17852D01*
X95722Y-17824D01*
X95750Y-17760D01*
X95772Y-17694D01*
X95786Y-17627D01*
X95794Y-17569D01*
X95797Y-17544D01*
Y-17522D01*
X95800Y-17502D01*
Y-17488D01*
Y-17480D01*
Y-17477D01*
X95797Y-17430D01*
X95794Y-17383D01*
X95789Y-17341D01*
X95780Y-17302D01*
X95772Y-17266D01*
X95764Y-17233D01*
X95753Y-17205D01*
X95742Y-17177D01*
X95730Y-17155D01*
X95719Y-17133D01*
X95711Y-17116D01*
X95703Y-17102D01*
X95694Y-17091D01*
X95689Y-17083D01*
X95683Y-17080D01*
Y-17077D01*
X95661Y-17055D01*
X95636Y-17033D01*
X95589Y-17000D01*
X95539Y-16977D01*
X95492Y-16961D01*
X95450Y-16950D01*
X95420Y-16947D01*
X95406Y-16944D01*
D02*
G37*
G36*
X92418D02*
X92402D01*
X92368Y-16947D01*
X92338Y-16950D01*
X92282Y-16964D01*
X92232Y-16986D01*
X92191Y-17011D01*
X92157Y-17036D01*
X92132Y-17055D01*
X92116Y-17072D01*
X92110Y-17075D01*
Y-17077D01*
X92088Y-17102D01*
X92071Y-17133D01*
X92041Y-17194D01*
X92019Y-17261D01*
X92005Y-17322D01*
X91996Y-17380D01*
X91994Y-17405D01*
Y-17427D01*
X91991Y-17444D01*
Y-17458D01*
Y-17466D01*
Y-17469D01*
Y-17519D01*
X91996Y-17566D01*
X92002Y-17608D01*
X92010Y-17649D01*
X92019Y-17685D01*
X92030Y-17719D01*
X92038Y-17749D01*
X92049Y-17777D01*
X92060Y-17799D01*
X92071Y-17821D01*
X92082Y-17838D01*
X92091Y-17852D01*
X92099Y-17863D01*
X92105Y-17871D01*
X92107Y-17874D01*
X92110Y-17877D01*
X92132Y-17899D01*
X92157Y-17921D01*
X92205Y-17955D01*
X92255Y-17977D01*
X92299Y-17994D01*
X92341Y-18002D01*
X92371Y-18007D01*
X92385Y-18010D01*
X92402D01*
X92435Y-18007D01*
X92466Y-18005D01*
X92524Y-17991D01*
X92574Y-17969D01*
X92616Y-17944D01*
X92649Y-17921D01*
X92674Y-17899D01*
X92690Y-17885D01*
X92693Y-17880D01*
X92696D01*
X92715Y-17852D01*
X92735Y-17824D01*
X92763Y-17760D01*
X92785Y-17694D01*
X92799Y-17627D01*
X92807Y-17569D01*
X92810Y-17544D01*
Y-17522D01*
X92813Y-17502D01*
Y-17488D01*
Y-17480D01*
Y-17477D01*
X92810Y-17430D01*
X92807Y-17383D01*
X92802Y-17341D01*
X92793Y-17302D01*
X92785Y-17266D01*
X92777Y-17233D01*
X92765Y-17205D01*
X92754Y-17177D01*
X92743Y-17155D01*
X92732Y-17133D01*
X92724Y-17116D01*
X92715Y-17102D01*
X92707Y-17091D01*
X92702Y-17083D01*
X92696Y-17080D01*
Y-17077D01*
X92674Y-17055D01*
X92649Y-17033D01*
X92602Y-17000D01*
X92552Y-16977D01*
X92504Y-16961D01*
X92463Y-16950D01*
X92432Y-16947D01*
X92418Y-16944D01*
D02*
G37*
%LPD*%
D15*
X0Y1270D02*
G03*
X1270Y0I1270J0D01*
G01*
Y97000D02*
G03*
X0Y95730I0J-1270D01*
G01*
X125730Y0D02*
G03*
X127000Y1270I0J1270D01*
G01*
Y95730D02*
G03*
X125730Y97000I-1270J0D01*
G01*
X0Y1270D02*
Y95730D01*
X1270Y97000D02*
X125730Y97000D01*
X127000Y1270D02*
X127000Y95730D01*
X1270Y-0D02*
X125730Y0D01*
D18*
X9875Y14150D02*
D03*
X8975D02*
D03*
X18550Y92150D02*
D03*
X19450D02*
D03*
X13800D02*
D03*
X14700D02*
D03*
X48925Y13850D02*
D03*
X48025D02*
D03*
X46275Y13850D02*
D03*
X47175D02*
D03*
D66*
X54692Y14250D02*
D03*
Y13625D02*
D03*
D89*
X92775Y38400D02*
D03*
X91875D02*
D03*
X86975Y38250D02*
D03*
X87875D02*
D03*
X97325Y38400D02*
D03*
X96425D02*
D03*
X93575D02*
D03*
X94475D02*
D03*
X110725Y16923D02*
D03*
X109825D02*
D03*
X70755Y30545D02*
D03*
X71655D02*
D03*
X44175Y90225D02*
D03*
X45075D02*
D03*
D90*
X74000Y36800D02*
D03*
Y36250D02*
D03*
Y34600D02*
D03*
Y35150D02*
D03*
X74975Y34625D02*
D03*
Y35175D02*
D03*
Y36275D02*
D03*
Y35725D02*
D03*
X69900Y37625D02*
D03*
Y38175D02*
D03*
X69875Y35975D02*
D03*
Y36525D02*
D03*
X70975Y36250D02*
D03*
Y35700D02*
D03*
X69925Y33125D02*
D03*
Y33675D02*
D03*
X69875Y34875D02*
D03*
Y35425D02*
D03*
X71000Y33500D02*
D03*
Y34050D02*
D03*
Y34600D02*
D03*
Y35150D02*
D03*
X71900Y34550D02*
D03*
Y35100D02*
D03*
X71925Y36750D02*
D03*
Y36200D02*
D03*
X76050Y33750D02*
D03*
Y33200D02*
D03*
X74975Y34075D02*
D03*
Y33525D02*
D03*
X76050Y34850D02*
D03*
Y35400D02*
D03*
Y36500D02*
D03*
Y35950D02*
D03*
X76000Y37650D02*
D03*
Y38200D02*
D03*
D91*
X75025Y31475D02*
D03*
X75625D02*
D03*
X73725D02*
D03*
X74325D02*
D03*
D92*
X97475Y39500D02*
D03*
X96075D02*
D03*
D94*
X77250Y33250D02*
D03*
Y32350D02*
D03*
X95450Y30450D02*
D03*
Y31350D02*
D03*
X68700Y4925D02*
D03*
Y5825D02*
D03*
X97275Y4850D02*
D03*
Y3950D02*
D03*
X78200Y4800D02*
D03*
Y3900D02*
D03*
X53867Y13487D02*
D03*
Y14387D02*
D03*
X42925Y89375D02*
D03*
Y90275D02*
D03*
D95*
X79675Y6150D02*
D03*
Y3350D02*
D03*
X98775Y6150D02*
D03*
Y3350D02*
D03*
D97*
X73000Y34750D02*
D03*
X72450D02*
D03*
X73450Y35700D02*
D03*
X74000D02*
D03*
X72900Y36750D02*
D03*
X73450D02*
D03*
X71925Y35650D02*
D03*
X72475D02*
D03*
X73550Y32650D02*
D03*
X73000D02*
D03*
X74650D02*
D03*
X74100D02*
D03*
X73450Y37678D02*
D03*
X74000D02*
D03*
X72550Y38675D02*
D03*
X72000D02*
D03*
X70475Y38754D02*
D03*
X71025D02*
D03*
X70900Y37625D02*
D03*
X71450D02*
D03*
X72575Y37625D02*
D03*
X72025D02*
D03*
X70250Y32550D02*
D03*
X70800D02*
D03*
X72275Y33600D02*
D03*
X71725D02*
D03*
X73500Y33600D02*
D03*
X72950D02*
D03*
X75200Y32650D02*
D03*
X75750D02*
D03*
X74875Y38725D02*
D03*
X75425D02*
D03*
X75100Y37675D02*
D03*
X74550D02*
D03*
X73650Y38675D02*
D03*
X73100D02*
D03*
X71430Y31245D02*
D03*
X70880D02*
D03*
X74875Y39700D02*
D03*
X75425D02*
D03*
X75975Y40275D02*
D03*
X75425D02*
D03*
X71900Y32550D02*
D03*
X71350D02*
D03*
D99*
X89475Y29975D02*
D03*
Y29075D02*
D03*
X89850Y38725D02*
D03*
Y37825D02*
D03*
X92175Y32975D02*
D03*
Y32075D02*
D03*
X90625Y29925D02*
D03*
Y29025D02*
D03*
X16625Y89100D02*
D03*
Y90000D02*
D03*
X21300Y89200D02*
D03*
Y90100D02*
D03*
X52692Y14387D02*
D03*
Y13487D02*
D03*
X3205Y73988D02*
D03*
Y74888D02*
D03*
X11425Y71800D02*
D03*
Y70900D02*
D03*
X3305Y83488D02*
D03*
Y84388D02*
D03*
X11180Y80838D02*
D03*
Y81738D02*
D03*
X52750Y6275D02*
D03*
Y5375D02*
D03*
X44525Y6275D02*
D03*
Y5375D02*
D03*
D101*
X96075Y4725D02*
D03*
Y3475D02*
D03*
X77050Y4675D02*
D03*
Y3425D02*
D03*
D107*
X58975Y12100D02*
D03*
X54475D02*
D03*
X58975Y4150D02*
D03*
X54475D02*
D03*
X9555Y89163D02*
D03*
X5055D02*
D03*
X9555Y81213D02*
D03*
X5055D02*
D03*
X9555Y79138D02*
D03*
X5055D02*
D03*
X9555Y71188D02*
D03*
X5055D02*
D03*
X66975Y12100D02*
D03*
X62475D02*
D03*
X66975Y4150D02*
D03*
X62475D02*
D03*
X46475D02*
D03*
X50975D02*
D03*
X46475Y12100D02*
D03*
X50975D02*
D03*
D108*
X19000Y88550D02*
D03*
X19950Y90750D02*
D03*
X18050D02*
D03*
X14250Y88550D02*
D03*
X15200Y90750D02*
D03*
X13300D02*
D03*
D109*
X120525Y27600D02*
D03*
X123525Y29100D02*
D03*
Y27600D02*
D03*
X120525Y29100D02*
D03*
D110*
X3305Y86863D02*
D03*
Y85563D02*
D03*
D111*
X3205Y76163D02*
D03*
Y77663D02*
D03*
X44525Y9175D02*
D03*
Y7675D02*
D03*
X52750Y7675D02*
D03*
Y9175D02*
D03*
D112*
X110725Y12523D02*
D03*
X109475D02*
D03*
D113*
X122850Y36725D02*
D03*
Y36075D02*
D03*
Y35425D02*
D03*
Y34775D02*
D03*
Y34125D02*
D03*
D114*
X125550Y36425D02*
D03*
Y34425D02*
D03*
D115*
X54725Y60400D02*
D03*
X78825D02*
D03*
D116*
X74525Y63100D02*
D03*
X75525D02*
D03*
X76525D02*
D03*
X76025D02*
D03*
X75025D02*
D03*
X74025D02*
D03*
X73525D02*
D03*
X73025D02*
D03*
X72025D02*
D03*
X71525D02*
D03*
X71025D02*
D03*
X70525D02*
D03*
X70025D02*
D03*
X69525D02*
D03*
X69025D02*
D03*
X68525D02*
D03*
X68025D02*
D03*
X67525D02*
D03*
X67025D02*
D03*
X66525D02*
D03*
X66025D02*
D03*
X65525D02*
D03*
X65025D02*
D03*
X64525D02*
D03*
X64025D02*
D03*
X63525D02*
D03*
X62025D02*
D03*
X61525D02*
D03*
X61025D02*
D03*
X60525D02*
D03*
X60025D02*
D03*
X59525D02*
D03*
X59025D02*
D03*
X58525D02*
D03*
X58025D02*
D03*
X57525D02*
D03*
X57025D02*
D03*
X72525D02*
D03*
X63025D02*
D03*
X62525D02*
D03*
D117*
X110725Y14898D02*
D03*
X107925D02*
D03*
D118*
X7950Y14150D02*
D03*
X6450D02*
D03*
X88650Y18300D02*
D03*
X90150D02*
D03*
M02*
